# This file uses centimeters as units for non-parametric coordinates.

g default
v -0.631119 19.347168 0.382313
v -0.631119 0.204285 0.382313
v -0.631119 20.137085 -0.407604
v -0.631119 -0.585632 -0.407604
v -0.631119 -0.585632 -6.592999
v -0.631119 0.339050 -7.517689
v -0.631119 20.137085 -6.592999
v -0.631119 19.212402 -7.517689
v -64.546906 20.137085 -0.407604
v -64.546906 19.347168 0.382313
v -64.546906 0.204285 0.382313
v -64.546906 -0.585632 -0.407604
v -64.546906 19.212402 -7.517689
v -64.546906 20.137085 -6.592999
v -64.546906 -0.585632 -6.592999
v -64.546906 0.339050 -7.517689
v -0.000015 19.551453 -0.203327
v -0.000015 0.000000 -0.203327
v -0.000015 0.067383 -6.864658
v -0.000015 19.484070 -6.864658
v -65.178009 19.551453 -0.203327
v -65.178009 0.000000 -0.203327
v -65.178009 0.067383 -6.864658
v -65.178009 19.484070 -6.864658
vt 0.008192 0.008192
vt 0.251766 0.008192
vt 0.255003 0.091470
vt 0.007347 0.091756
vt 0.011600 0.000000
vt 0.248358 0.000000
vt 0.259958 0.089193
vt 0.259958 0.011600
vt 0.250048 0.099102
vt 0.009909 0.099102
vt 0.000000 0.089193
vt 0.000000 0.011600
vt 0.008192 0.991808
vt 0.007347 0.908245
vt 0.255003 0.908530
vt 0.251766 0.991808
vt 0.000000 0.988400
vt 0.000000 0.910807
vt 0.009909 0.900898
vt 0.250048 0.900898
vt 0.259958 0.910807
vt 0.259958 0.988400
vt 0.248358 1.000000
vt 0.011600 1.000000
vt 0.337551 0.099102
vt 0.337551 0.900898
vt 0.259957 0.900898
vt 0.259957 0.099102
vt 0.349150 0.900898
vt 0.349150 0.099102
vt 0.340958 0.908815
vt 0.340958 0.091185
vt 0.597508 0.900898
vt 0.597508 0.099102
vt 0.675102 0.099102
vt 0.675101 0.900898
vt 0.585909 0.900898
vt 0.585909 0.099102
vt 0.685011 0.900898
vt 0.685011 0.099102
vt 0.594101 0.908815
vt 0.594101 0.091185
vt 0.677664 0.908815
vt 0.677664 0.091185
vn 0.000000 0.707107 0.707107
vn 0.000000 0.707107 0.707107
vn 0.000000 0.707107 0.707107
vn 0.000000 0.707107 0.707107
vn 0.000000 -0.707107 0.707107
vn 0.000000 -0.707107 0.707107
vn 0.000000 -0.707107 0.707107
vn 0.000000 -0.707107 0.707107
vn 0.000000 0.000000 1.000000
vn 0.000000 0.000000 1.000000
vn 0.000000 0.000000 1.000000
vn 0.000000 0.000000 1.000000
vn 0.000000 0.707110 -0.707104
vn 0.000000 0.707110 -0.707104
vn 0.000000 0.707110 -0.707104
vn 0.000000 0.707110 -0.707104
vn 0.000000 -0.707110 -0.707104
vn 0.000000 -0.707110 -0.707104
vn 0.000000 -0.707110 -0.707104
vn 0.000000 -0.707110 -0.707104
vn 0.000000 0.000000 -1.000000
vn 0.000000 0.000000 -1.000000
vn 0.000000 0.000000 -1.000000
vn 0.000000 0.000000 -1.000000
vn 0.000000 1.000000 0.000000
vn 0.000000 1.000000 0.000000
vn 0.000000 1.000000 0.000000
vn 0.000000 1.000000 0.000000
vn 0.000000 -1.000000 0.000000
vn 0.000000 -1.000000 0.000000
vn 0.000000 -1.000000 0.000000
vn 0.000000 -1.000000 0.000000
vn 0.680211 0.000000 0.733016
vn 0.680211 0.000000 0.733016
vn 0.680211 0.000000 0.733016
vn 0.680211 0.000000 0.733016
vn 0.392917 0.650238 0.650236
vn 0.392918 0.650238 0.650236
vn 0.392917 0.650238 0.650236
vn 0.392917 -0.650237 0.650237
vn 0.392917 -0.650237 0.650237
vn 0.392917 -0.650237 0.650237
vn 0.700308 0.713831 -0.003744
vn 0.700308 0.713831 -0.003744
vn 0.700308 0.713831 -0.003744
vn 0.700308 0.713831 -0.003744
vn 0.700308 -0.713831 -0.003744
vn 0.700308 -0.713831 -0.003744
vn 0.700308 -0.713831 -0.003744
vn 0.700308 -0.713831 -0.003744
vn 0.392920 -0.650239 -0.650233
vn 0.392920 -0.650239 -0.650233
vn 0.392920 -0.650239 -0.650233
vn 0.719076 0.000000 -0.694931
vn 0.719076 0.000000 -0.694931
vn 0.719076 0.000000 -0.694931
vn 0.719076 0.000000 -0.694931
vn 0.392920 0.650239 -0.650233
vn 0.392920 0.650239 -0.650233
vn 0.392920 0.650239 -0.650233
vn 1.000000 0.000000 0.000000
vn 1.000000 0.000000 0.000000
vn 1.000000 0.000000 0.000000
vn 1.000000 0.000000 0.000000
vn -0.680211 0.000000 0.733016
vn -0.680211 0.000000 0.733016
vn -0.680211 0.000000 0.733016
vn -0.680211 0.000000 0.733016
vn -0.392917 0.650238 0.650236
vn -0.392917 0.650238 0.650236
vn -0.392917 0.650238 0.650236
vn -0.392917 -0.650237 0.650237
vn -0.392917 -0.650237 0.650237
vn -0.392917 -0.650237 0.650237
vn -0.700305 0.713834 -0.003744
vn -0.700305 0.713834 -0.003744
vn -0.700306 0.713834 -0.003744
vn -0.700305 0.713834 -0.003744
vn -0.700305 -0.713834 -0.003744
vn -0.700306 -0.713834 -0.003744
vn -0.700305 -0.713834 -0.003744
vn -0.700305 -0.713834 -0.003744
vn -0.392921 -0.650237 -0.650235
vn -0.392921 -0.650237 -0.650235
vn -0.392921 -0.650237 -0.650235
vn -0.719076 0.000000 -0.694931
vn -0.719076 0.000000 -0.694931
vn -0.719076 0.000000 -0.694931
vn -0.719076 0.000000 -0.694931
vn -0.392921 0.650237 -0.650235
vn -0.392921 0.650237 -0.650235
vn -0.392921 0.650237 -0.650235
vn -1.000000 0.000000 0.000000
vn -1.000000 0.000000 0.000000
vn -1.000000 0.000000 0.000000
vn -1.000000 0.000000 0.000000
s off
g Mesh_EDH_Building_Skirt_Straight
f 9/27/1 10/20/2 1/9/3 3/28/4
f 11/39/5 12/36/6 4/35/7 2/40/8
f 11/19/9 2/10/10 1/9/11 10/20/12
f 13/29/13 14/26/14 7/25/15 8/30/16
f 15/33/17 16/37/18 6/38/19 5/34/20
f 6/38/21 16/37/22 13/29/23 8/30/24
f 7/25/25 14/26/26 9/27/27 3/28/28
f 15/33/29 5/34/30 4/35/31 12/36/32
f 17/3/33 1/9/34 2/10/35 18/4/36
f 1/9/37 17/3/38 3/28/39
f 18/44/40 2/40/41 4/35/42
f 3/7/43 17/3/44 20/2/45 7/8/46
f 18/4/47 4/11/48 5/12/49 19/1/50
f 19/42/51 5/34/52 6/38/53
f 19/1/54 6/5/55 8/6/56 20/2/57
f 7/25/58 20/32/59 8/30/60
f 19/1/61 20/2/62 17/3/63 18/4/64
f 21/15/65 22/14/66 11/19/67 10/20/68
f 10/20/69 9/27/70 21/15/71
f 22/43/72 12/36/73 11/39/74
f 9/21/75 14/22/76 24/16/77 21/15/78
f 22/14/79 23/13/80 15/17/81 12/18/82
f 23/41/83 16/37/84 15/33/85
f 23/13/86 24/16/87 13/23/88 16/24/89
f 14/26/90 13/29/91 24/31/92
f 23/13/93 22/14/94 21/15/95 24/16/96
