# This file uses centimeters as units for non-parametric coordinates.

g default
v 7.658112 20.137085 -51.164890
v 8.243744 19.932800 -50.533791
v 7.453827 20.722717 -50.533791
v 7.658112 0.585632 -51.164890
v 8.243744 0.789917 -50.533791
v 7.453827 0.000000 -50.533791
v 0.996780 0.653015 -51.164890
v 1.268433 0.000000 -50.533791
v 0.343750 0.924683 -50.533791
v 0.996780 20.069702 -51.164890
v 0.343750 19.798035 -50.533791
v 1.268433 20.722717 -50.533791
v -50.617813 20.137085 7.111034
v -49.986717 19.932800 7.696674
v -49.986717 20.722717 6.906757
v -50.617813 0.585632 7.111034
v -49.986717 0.789917 7.696674
v -49.986717 0.000000 6.906757
v -50.617813 0.653015 0.449703
v -49.986717 0.000000 0.721363
v -49.986717 0.924683 -0.203327
v -50.617813 20.069702 0.449703
v -49.986717 19.798035 -0.203327
v -49.986717 20.722717 0.721363
v 8.243744 19.932800 7.243744
v 7.790817 19.932800 7.696674
v 7.453827 20.722717 6.453827
v 7.000900 20.722717 6.906757
v 7.453827 0.000000 6.453827
v 7.000900 0.000000 6.906757
v 8.243744 0.789917 7.243744
v 7.790817 0.789917 7.696674
v 1.000000 20.722717 -0.000008
v 0.547066 20.722717 0.452921
v 0.343750 19.798035 -0.656256
v -0.109177 19.798035 -0.203327
v 0.343750 0.924683 -0.656256
v -0.109177 0.924683 -0.203327
v 1.000000 0.000000 -0.000008
v 0.547066 0.000000 0.452921
vt 0.336758 0.997186
vt 0.253080 0.997186
vt 0.252789 0.968478
vt 0.337048 0.968478
vt 0.254251 1.000000
vt 0.335587 1.000000
vt 0.250265 0.969358
vt 0.250265 0.996015
vt 0.336168 0.965954
vt 0.253670 0.965954
vt 0.339572 0.969358
vt 0.339572 0.996015
vt 0.336169 0.715003
vt 0.253670 0.715003
vt 0.253670 0.466005
vt 0.336169 0.466005
vt 0.336169 0.716955
vt 0.253670 0.716955
vt 0.250266 0.711599
vt 0.250266 0.466005
vt 0.252790 0.463285
vt 0.337049 0.463285
vt 0.339573 0.466005
vt 0.339573 0.711599
vt 0.335588 0.216905
vt 0.335588 0.431857
vt 0.254251 0.431858
vt 0.254251 0.216905
vt 0.339573 0.214077
vt 0.339573 0.431857
vt 0.336759 0.434577
vt 0.253080 0.434577
vt 0.250266 0.431858
vt 0.250266 0.214077
vt 0.335587 0.214953
vt 0.254251 0.214953
vt 0.338121 0.716955
vt 0.341525 0.713551
vt 0.367386 0.683786
vt 0.369338 0.685738
vt 0.587119 0.713551
vt 0.587119 0.716955
vt 0.366230 0.466005
vt 0.370215 0.680958
vt 0.372167 0.682909
vt 0.587119 0.686894
vt 0.589839 0.714432
vt 0.338692 0.463285
vt 0.367400 0.463285
vt 0.587119 0.682909
vt 0.589839 0.685724
vt 0.248314 0.713551
vt 0.220501 0.685738
vt 0.222453 0.683786
vt 0.251718 0.716955
vt 0.002720 0.686895
vt 0.002720 0.713551
vt 0.217673 0.682909
vt 0.219624 0.680958
vt 0.223610 0.466005
vt 0.002720 0.716955
vt 0.002720 0.682909
vt 0.222439 0.463285
vt 0.251147 0.463285
vt 0.000000 0.714432
vt 0.000000 0.685724
vt 0.254251 0.000000
vt 0.335588 0.000000
vn 0.650242 0.650237 -0.392910
vn 0.707106 0.707106 -0.001324
vn 0.707106 0.707106 -0.001324
vn 0.733018 0.000000 -0.680209
vn 0.733018 0.000000 -0.680209
vn 0.733018 0.000000 -0.680209
vn 0.733018 0.000000 -0.680209
vn -0.003744 0.713829 -0.700310
vn -0.003744 0.713829 -0.700310
vn -0.003744 0.713829 -0.700310
vn -0.003744 0.713829 -0.700310
vn 0.707106 -0.707106 -0.001324
vn 0.707106 -0.707106 -0.001324
vn 0.650241 -0.650236 -0.392911
vn -0.003744 -0.713829 -0.700310
vn -0.003744 -0.713829 -0.700310
vn -0.003744 -0.713829 -0.700310
vn -0.003744 -0.713829 -0.700310
vn -0.759581 -0.650404 -0.003510
vn -0.759581 -0.650403 -0.003506
vn -0.650238 -0.650232 -0.392924
vn -0.694930 0.000000 -0.719078
vn -0.694930 0.000000 -0.719078
vn -0.694930 0.000000 -0.719078
vn -0.694930 0.000000 -0.719078
vn -0.759581 0.650403 -0.003506
vn -0.759581 0.650404 -0.003510
vn -0.650237 0.650233 -0.392923
vn 0.000000 0.000000 -1.000000
vn 0.000000 0.000000 -1.000000
vn 0.000000 0.000000 -1.000000
vn 0.000000 0.000000 -1.000000
vn -0.392921 0.650233 0.650238
vn -0.001324 0.707107 0.707106
vn -0.001324 0.707107 0.707106
vn -0.680216 0.000000 0.733012
vn -0.680216 0.000000 0.733012
vn -0.680216 0.000000 0.733012
vn -0.680216 0.000000 0.733012
vn -0.700313 0.713826 -0.003744
vn -0.700313 0.713826 -0.003744
vn -0.700313 0.713826 -0.003744
vn -0.700313 0.713826 -0.003744
vn -0.001324 -0.707106 0.707106
vn -0.392920 -0.650235 0.650237
vn -0.001324 -0.707106 0.707106
vn -0.700313 -0.713826 -0.003744
vn -0.700313 -0.713826 -0.003744
vn -0.700313 -0.713826 -0.003744
vn -0.700313 -0.713826 -0.003744
vn -0.003510 -0.650405 -0.759579
vn -0.392923 -0.650240 -0.650230
vn -0.003506 -0.650405 -0.759580
vn -0.719080 0.000000 -0.694927
vn -0.719080 0.000000 -0.694927
vn -0.719080 0.000000 -0.694927
vn -0.719080 0.000000 -0.694927
vn -0.003506 0.650405 -0.759580
vn -0.392923 0.650239 -0.650231
vn -0.003510 0.650405 -0.759579
vn -1.000000 0.000000 0.000000
vn -1.000000 0.000000 0.000000
vn -1.000000 0.000000 0.000000
vn -1.000000 0.000000 0.000000
vn 0.707110 0.000000 0.707104
vn 0.707110 0.000000 0.707104
vn 0.707110 0.000000 0.707104
vn 0.707110 0.000000 0.707104
vn 0.408249 0.816497 0.408247
vn 0.702563 0.711564 0.009001
vn 0.705111 0.709086 0.003976
vn 0.408249 0.816497 0.408247
vn 0.000000 1.000000 0.000000
vn 0.000000 1.000000 0.000000
vn 0.000000 1.000000 0.000000
vn 0.000000 1.000000 0.000000
vn 0.000000 -1.000000 0.000000
vn 0.000000 -1.000000 0.000000
vn 0.000000 -1.000000 0.000000
vn 0.000000 -1.000000 0.000000
vn 0.408250 -0.816497 0.408246
vn 0.705111 -0.709086 0.003976
vn 0.702563 -0.711564 0.009001
vn 0.408249 -0.816497 0.408246
vn -0.499083 0.708400 -0.499085
vn -0.499083 0.708400 -0.499085
vn -0.499083 0.708400 -0.499085
vn -0.499083 0.708400 -0.499085
vn -0.707108 0.000000 -0.707105
vn -0.707108 0.000000 -0.707105
vn -0.707108 0.000000 -0.707105
vn -0.707108 0.000000 -0.707105
vn -0.499083 -0.708400 -0.499085
vn -0.499083 -0.708400 -0.499085
vn -0.499083 -0.708400 -0.499085
vn -0.499083 -0.708400 -0.499085
vn 1.000000 0.000000 0.000000
vn 1.000000 0.000000 0.000000
vn 1.000000 0.000000 0.000000
vn 1.000000 0.000000 0.000000
vn -0.759759 0.650202 -0.002031
vn -0.759759 0.650202 -0.002031
vn -0.759759 -0.650202 -0.002031
vn -0.759759 -0.650202 -0.002031
vn -1.000000 0.000000 0.000000
vn -1.000000 0.000000 0.000000
vn -1.000000 0.000000 0.000000
vn -1.000000 0.000000 0.000000
vn 0.000000 1.000000 0.000000
vn 0.000000 1.000000 0.000000
vn 0.000000 -1.000000 0.000000
vn 0.000000 -1.000000 0.000000
vn 0.000000 0.707107 0.707106
vn 0.000000 0.707107 0.707106
vn 0.000000 -0.707107 0.707107
vn 0.000000 -0.707107 0.707107
vn 0.000000 0.000000 1.000000
vn 0.000000 0.000000 1.000000
vn 0.000000 0.000000 1.000000
vn 0.000000 0.000000 1.000000
vn -0.002031 0.650203 -0.759757
vn -0.002031 0.650203 -0.759757
vn -0.002031 -0.650203 -0.759758
vn -0.002031 -0.650203 -0.759758
vn 0.000000 0.000000 -1.000000
vn 0.000000 0.000000 -1.000000
vn 0.000000 0.000000 -1.000000
vn 0.000000 0.000000 -1.000000
vn 0.000000 1.000000 0.000000
vn 0.000000 1.000000 0.000000
vn 0.000000 -1.000000 0.000000
vn 0.000000 -1.000000 0.000000
s 1
g Mesh_EDH_Building_Skirt_Corner
f 1/22/1 3/23/2 2/16/3
s off
f 2/16/4 5/15/5 4/21/6 1/22/7
f 1/48/8 10/49/9 12/43/10 3/23/11
s 2
f 5/15/12 6/20/13 4/21/14
s off
f 6/20/15 8/60/16 7/63/17 4/64/18
s 3
f 8/33/19 9/27/20 7/32/21
s off
f 9/27/22 11/26/23 10/31/24 7/32/25
s 4
f 11/26/26 12/30/27 10/31/28
s off
f 10/31/29 1/22/30 4/21/31 7/32/32
s 5
f 13/47/33 14/42/34 15/41/35
s off
f 14/9/36 13/4/37 16/3/38 17/10/39
f 13/4/40 15/11/41 24/12/42 22/1/43
s 6
f 17/61/44 16/65/45 18/57/46
s off
f 18/7/47 16/3/48 19/2/49 20/8/50
s 7
f 20/56/51 19/66/52 21/62/53
s off
f 21/5/54 19/2/55 22/1/56 23/6/57
s 8
f 23/50/58 22/51/59 24/46/60
s off
f 22/1/61 19/2/62 16/3/63 13/4/64
f 25/13/65 26/17/66 32/18/67 31/14/68
s 1
f 26/37/69 25/13/70 27/24/71 28/38/72
s 9
f 28/38/73 27/24/74 33/39/75 34/40/76
s 10
f 29/19/77 30/52/78 40/53/79 39/54/80
s 2
f 30/52/81 29/19/82 31/14/83 32/55/84
s off
f 34/40/85 33/39/86 35/44/87 36/45/88
f 36/35/89 35/25/90 37/28/91 38/36/92
f 38/58/93 37/59/94 39/54/95 40/53/96
s 1
f 25/13/70 2/16/3 3/23/2 27/24/71
s 2
f 29/19/82 6/20/13 5/15/12 31/14/83
s off
f 25/13/97 31/14/98 5/15/99 2/16/100
s 4
f 33/29/101 12/30/27 11/26/26 35/25/102
s 3
f 37/28/103 9/27/20 8/33/19 39/34/104
s off
f 35/25/105 11/26/106 9/27/107 37/28/108
s 9
f 33/39/75 27/24/74 3/23/109 12/43/110
s 10
f 8/60/111 6/20/112 29/19/77 39/54/80
s 5
f 26/37/113 28/38/114 15/41/35 14/42/34
s 6
f 30/52/115 32/55/116 17/61/44 18/57/46
s off
f 26/17/117 14/9/118 17/10/119 32/18/120
s 8
f 34/40/121 36/45/122 23/50/58 24/46/60
s 7
f 38/58/123 40/53/124 20/56/51 21/62/53
s off
f 36/35/125 38/36/126 21/67/127 23/68/128
s 9
f 34/40/76 24/46/129 15/41/130 28/38/73
s 10
f 20/56/131 40/53/79 30/52/78 18/57/132
