# This file uses centimeters as units for non-parametric coordinates.

g default
v -0.359100 10.970184 0.333229
v -0.359100 0.077881 0.333229
v -0.359100 11.419647 -0.116233
v -0.359100 -0.371582 -0.116233
v -0.359100 -0.371582 -3.635723
v -0.359100 0.154572 -4.161872
v -0.359100 11.419647 -3.635723
v -0.359100 10.893524 -4.161872
v -36.727173 11.419647 -0.116233
v -36.727173 10.970184 0.333229
v -36.727173 0.077881 0.333229
v -36.727173 -0.371582 -0.116233
v -36.727173 10.893524 -4.161872
v -36.727173 11.419647 -3.635723
v -36.727173 -0.371582 -3.635723
v -36.727173 0.154572 -4.161872
v 0.000000 11.086426 0.000000
v 0.000000 -0.038330 0.000000
v 0.000000 0.000000 -3.790298
v 0.000000 11.048096 -3.790298
v -37.086273 11.086426 0.000000
v -37.086273 -0.038330 0.000000
v -37.086273 0.000000 -3.790298
v -37.086273 11.048096 -3.790298
vt 0.996997 0.000000
vt 0.997033 0.000000
vt 0.620749 0.000000
vt 0.620768 0.000000
vt 0.997033 0.000000
vt 0.996997 0.000000
vt 0.620768 0.000000
vt 0.620750 0.000000
vt 0.996627 0.000000
vt 0.993493 0.000000
vt 0.620937 0.000000
vt 0.620964 0.000000
vt 0.993493 0.000000
vt 0.996627 0.000000
vt 0.620964 0.000000
vt 0.620940 0.000000
vt 0.619184 0.000000
vt 0.620749 0.000000
vt 0.620750 0.000000
vt 0.619184 0.000000
vt 0.620768 0.000000
vt 0.620768 0.000000
vt 0.619184 0.000000
vt 0.620937 0.000000
vt 0.620940 0.000000
vt 0.619184 0.000000
vt 0.620964 0.000000
vt 0.620964 0.000000
vt 0.619184 0.000000
vt 0.620749 0.000000
vt 0.620750 0.000000
vt 0.619184 0.000000
vt 0.620768 0.000000
vt 0.620768 0.000000
vt 0.619184 0.000000
vt 0.620937 0.000000
vt 0.620940 0.000000
vt 0.619184 0.000000
vt 0.620964 0.000000
vt 0.620964 0.000000
vn 0.000000 0.707106 0.707107
vn 0.000000 0.707106 0.707107
vn 0.000000 0.707106 0.707107
vn 0.000000 0.707106 0.707107
vn 0.000000 -0.707106 0.707107
vn 0.000000 -0.707106 0.707107
vn 0.000000 -0.707106 0.707107
vn 0.000000 -0.707106 0.707107
vn 0.000000 0.000000 1.000000
vn 0.000000 0.000000 1.000000
vn 0.000000 0.000000 1.000000
vn 0.000000 0.000000 1.000000
vn 0.000000 0.707124 -0.707089
vn 0.000000 0.707124 -0.707089
vn 0.000000 0.707124 -0.707089
vn 0.000000 0.707124 -0.707089
vn 0.000000 -0.707104 -0.707110
vn 0.000000 -0.707104 -0.707110
vn 0.000000 -0.707104 -0.707110
vn 0.000000 -0.707104 -0.707110
vn 0.000000 0.000000 -1.000000
vn 0.000000 0.000000 -1.000000
vn 0.000000 0.000000 -1.000000
vn 0.000000 0.000000 -1.000000
vn 0.000000 1.000000 0.000000
vn 0.000000 1.000000 0.000000
vn 0.000000 1.000000 0.000000
vn 0.000000 1.000000 0.000000
vn 0.000000 -1.000000 0.000000
vn 0.000000 -1.000000 0.000000
vn 0.000000 -1.000000 0.000000
vn 0.000000 -1.000000 0.000000
vn 0.680209 0.000000 0.733019
vn 0.680209 0.000000 0.733019
vn 0.680209 0.000000 0.733019
vn 0.680209 0.000000 0.733019
vn 0.392909 0.650238 0.650241
vn 0.392909 0.650238 0.650240
vn 0.392909 0.650238 0.650240
vn 0.392956 -0.650225 0.650225
vn 0.392956 -0.650225 0.650225
vn 0.392956 -0.650225 0.650225
vn 0.700296 0.713842 -0.003743
vn 0.700296 0.713842 -0.003743
vn 0.700296 0.713842 -0.003743
vn 0.700296 0.713842 -0.003743
vn 0.700327 -0.713812 -0.003743
vn 0.700327 -0.713812 -0.003743
vn 0.700327 -0.713812 -0.003743
vn 0.700327 -0.713812 -0.003743
vn 0.392936 -0.650228 -0.650234
vn 0.392936 -0.650228 -0.650234
vn 0.392936 -0.650228 -0.650234
vn 0.719074 0.000000 -0.694934
vn 0.719074 0.000000 -0.694934
vn 0.719074 0.000000 -0.694934
vn 0.719074 0.000000 -0.694934
vn 0.392912 0.650254 -0.650223
vn 0.392912 0.650255 -0.650223
vn 0.392912 0.650254 -0.650223
vn 1.000000 0.000000 0.000000
vn 1.000000 0.000000 0.000000
vn 1.000000 0.000000 0.000000
vn 1.000000 0.000000 0.000000
vn -0.680209 0.000000 0.733019
vn -0.680209 0.000000 0.733019
vn -0.680209 0.000000 0.733019
vn -0.680209 0.000000 0.733019
vn -0.392910 0.650237 0.650241
vn -0.392910 0.650237 0.650241
vn -0.392910 0.650237 0.650241
vn -0.392957 -0.650224 0.650226
vn -0.392957 -0.650224 0.650226
vn -0.392957 -0.650224 0.650226
vn -0.700297 0.713842 -0.003743
vn -0.700297 0.713842 -0.003743
vn -0.700297 0.713842 -0.003743
vn -0.700297 0.713842 -0.003743
vn -0.700328 -0.713812 -0.003743
vn -0.700328 -0.713812 -0.003743
vn -0.700328 -0.713812 -0.003743
vn -0.700328 -0.713812 -0.003743
vn -0.392935 -0.650230 -0.650233
vn -0.392935 -0.650230 -0.650233
vn -0.392935 -0.650230 -0.650233
vn -0.719074 0.000000 -0.694934
vn -0.719074 0.000000 -0.694934
vn -0.719074 0.000000 -0.694934
vn -0.719074 0.000000 -0.694934
vn -0.392912 0.650256 -0.650221
vn -0.392912 0.650256 -0.650221
vn -0.392912 0.650256 -0.650221
vn -1.000000 0.000000 0.000000
vn -1.000000 0.000000 0.000000
vn -1.000000 0.000000 0.000000
vn -1.000000 0.000000 0.000000
s off
g Mesh_EDH_Building_Roof_Straight
f 9/1/1 10/2/2 1/3/3 3/4/4
f 11/5/5 12/6/6 4/7/7 2/8/8
f 11/5/9 2/8/10 1/3/11 10/2/12
f 13/9/13 14/10/14 7/11/15 8/12/16
f 15/13/17 16/14/18 6/15/19 5/16/20
f 6/15/21 16/14/22 13/9/23 8/12/24
f 7/11/25 14/10/26 9/1/27 3/4/28
f 15/13/29 5/16/30 4/7/31 12/6/32
f 17/17/33 1/18/34 2/19/35 18/20/36
f 1/18/37 17/17/38 3/21/39
f 18/20/40 2/19/41 4/22/42
f 3/21/43 17/17/44 20/23/45 7/24/46
f 18/20/47 4/22/48 5/25/49 19/26/50
f 19/26/51 5/25/52 6/27/53
f 19/26/54 6/27/55 8/28/56 20/23/57
f 7/24/58 20/23/59 8/28/60
f 19/26/61 20/23/62 17/17/63 18/20/64
f 21/29/65 22/32/66 11/31/67 10/30/68
f 10/30/69 9/33/70 21/29/71
f 22/32/72 12/34/73 11/31/74
f 9/33/75 14/36/76 24/35/77 21/29/78
f 22/32/79 23/38/80 15/37/81 12/34/82
f 23/38/83 16/39/84 15/37/85
f 23/38/86 24/35/87 13/40/88 16/39/89
f 14/36/90 13/40/91 24/35/92
f 23/38/93 22/32/94 21/29/95 24/35/96
