# This file uses centimeters as units for non-parametric coordinates.

g default
v 6.278704 12.557400 0.782830
v -6.278705 12.557400 0.782830
v 6.278704 21.773773 0.782830
v -6.278705 21.773773 0.782830
v -6.278705 12.557400 -0.020071
v 6.278706 12.557400 -0.020071
v -6.278705 21.773773 -0.020071
v 6.278706 21.773773 -0.020071
v 8.429501 21.773773 0.782830
v 8.531831 12.557400 0.782830
v 8.429502 21.773773 -0.020071
v 8.531833 12.557400 -0.020071
v -8.952401 21.773773 -0.020071
v -9.054731 12.557400 -0.020071
v -8.952401 21.773773 0.782830
v -9.054736 12.557400 0.782830
v -8.812982 34.331173 0.762760
v -8.803323 34.311111 0.782830
v -18.816050 21.766735 0.782830
v -18.836115 21.773773 0.762760
v -8.812982 34.331173 0.000000
v -8.803323 34.311111 -0.020071
v -18.836115 21.773773 0.000000
v -18.816050 21.766735 -0.020071
v 8.290071 34.331173 0.000000
v 8.280719 34.311111 -0.020071
v 6.278706 34.331173 0.000000
v 6.278706 34.311111 -0.020071
v 18.816044 21.766460 -0.020071
v 18.836113 21.773773 0.000000
v 8.290071 34.331173 0.762760
v 8.280719 34.311111 0.782830
v 18.836113 21.773773 0.762760
v 18.816044 21.766460 0.782830
v -6.278705 34.331173 0.762760
v -6.278705 34.311111 0.782830
v 8.671256 0.000000 0.000000
v 8.661680 0.020072 -0.020071
v 6.278704 0.020072 -0.020071
v 6.278704 0.000000 0.000000
v 8.671256 0.000000 0.762760
v 8.661680 0.020073 0.782830
v 6.278706 0.000000 0.762760
v 6.278706 0.020073 0.782830
v -6.278705 34.331173 0.000000
v -6.278705 34.311111 -0.020071
v -9.194163 0.000000 0.762760
v -9.184267 0.020073 0.782830
v -18.836115 12.557400 0.762760
v -18.816050 12.564224 0.782830
v -6.278705 0.020073 0.782830
v -6.278705 0.000000 0.762760
v 18.836113 12.557400 0.000000
v 18.816044 12.564508 -0.020071
v 18.836113 12.557400 0.762760
v 18.816044 12.564508 0.782830
v -9.194163 0.000000 0.000000
v -9.184267 0.020072 -0.020071
v -18.836115 12.557400 0.000000
v -18.816050 12.564224 -0.020071
v -6.278705 0.020072 -0.020071
v -6.278705 0.000000 0.000000
v 6.278704 34.331173 0.762760
v 6.278704 34.311111 0.782830
v -9.147182 30.404224 -0.032748
v -6.465947 30.404224 -0.032748
v 6.488008 30.404224 -0.032748
v 8.629982 30.404224 -0.032748
v 15.020524 22.578342 -0.060869
v 15.076892 11.752728 -0.060869
v 8.879260 3.926957 -0.032748
v 6.488008 3.926957 -0.032748
v -6.465947 3.926957 -0.032748
v -9.396451 3.926957 -0.032748
v -15.338342 11.752560 -0.060869
v -15.281976 22.578503 -0.060869
v 6.488007 30.404224 0.795507
v -6.465947 30.404224 0.795507
v -9.147182 30.404224 0.795507
v -15.281976 22.578503 0.823629
v -15.338345 11.752560 0.823629
v -9.396454 3.926957 0.795507
v -6.465947 3.926957 0.795507
v 6.488008 3.926957 0.795507
v 8.879258 3.926957 0.795507
v 15.076889 11.752728 0.823629
v 15.020524 22.578342 0.823629
v 8.629982 30.404224 0.795507
v 0.000001 21.773773 -0.020071
v 0.011031 30.404224 -0.032748
v 0.000001 34.311111 -0.020071
v 0.000001 34.331173 0.000000
v 0.000000 34.331173 0.762760
v 0.000000 34.311111 0.782830
v 0.011030 30.404224 0.795507
v 0.000000 21.773773 0.782830
v 0.000000 12.557400 0.782830
v 0.011030 3.926957 0.795507
v 0.000001 0.020073 0.782830
v 0.000001 0.000000 0.762760
v 0.000000 0.000000 0.000000
v 0.000000 0.020072 -0.020071
v 0.011030 3.926957 -0.032748
v 0.000001 12.557400 -0.020071
vt 0.376310 0.337074
vt 0.379744 0.314245
vt 0.376083 0.336927
vt 0.261941 0.424841
vt 0.179263 0.424882
vt 0.382014 0.341299
vt 0.375318 0.519925
vt 0.375519 0.542772
vt 0.384459 0.172976
vt 0.388507 0.194764
vt 0.374787 0.656529
vt 0.378479 0.177294
vt 0.380952 0.195436
vt 0.379478 0.314215
vt 0.068986 0.678817
vt 0.067826 0.657450
vt 0.055854 0.191543
vt 0.053544 0.312392
vt 0.066674 0.170693
vt 0.063296 0.192401
vt 0.063029 0.192370
vt 0.060843 0.311808
vt 0.064561 0.338734
vt 0.064792 0.338585
vt 0.058875 0.343037
vt 0.066800 0.517636
vt 0.066769 0.543936
vt 0.263026 0.431735
vt 0.262758 0.655324
vt 0.373969 0.674402
vt 0.264160 0.082742
vt 0.263698 0.310544
vt 0.060741 0.166295
vt 0.375573 0.519836
vt 0.061110 0.311785
vt 0.179017 0.075101
vt 0.066447 0.170545
vt 0.266766 0.076143
vt 0.181454 0.081759
vt 0.179173 0.425138
vt 0.066578 0.517485
vt 0.262032 0.425096
vt 0.178270 0.431816
vt 0.261445 0.431986
vt 0.179849 0.432066
vt 0.179564 0.518957
vt 0.180262 0.655645
vt 0.264063 0.082995
vt 0.181543 0.082016
vt 0.179635 0.176072
vt 0.178473 0.310062
vt 0.378709 0.177149
vt 0.386900 0.315006
vt 0.381219 0.195415
vt 0.264162 0.197243
vt 0.262429 0.543457
vt 0.264071 0.177573
vt 0.179018 0.196588
vt 0.262553 0.767114
vt 0.262670 0.674557
vt 0.181188 0.767547
vt 0.180462 0.675737
vt 0.262266 0.519547
vt 0.179563 0.543775
vt 0.263088 0.334975
vt 0.178663 0.335357
vt 0.066544 0.517547
vt 0.066513 0.543939
vt 0.067571 0.657460
vt 0.068749 0.678952
vt 0.181100 0.767797
vt 0.262646 0.767362
vt 0.375775 0.542774
vt 0.375042 0.656538
vt 0.374207 0.674533
vt 0.375539 0.519775
vt 0.318792 0.519736
vt 0.318974 0.543115
vt 0.318773 0.655927
vt 0.318320 0.674479
vt 0.262612 0.720835
vt 0.180825 0.721642
vt 0.124724 0.677277
vt 0.124044 0.656548
vt 0.123166 0.543856
vt 0.123182 0.518297
vt 0.179707 0.475511
vt 0.261856 0.475767
vt 0.322557 0.196340
vt 0.321588 0.312380
vt 0.319586 0.335951
vt 0.262514 0.379908
vt 0.178963 0.380120
vt 0.121728 0.336971
vt 0.119791 0.310924
vt 0.121157 0.194495
vt 0.123154 0.173382
vt 0.180589 0.129044
vt 0.264067 0.130284
vt 0.321275 0.177434
vt 0.262594 0.599391
vt 0.318873 0.599521
vt 0.375153 0.599651
vt 0.375409 0.599656
vt 0.387704 0.254885
vt 0.380481 0.254830
vt 0.380215 0.254826
vt 0.322073 0.254360
vt 0.263930 0.253894
vt 0.178745 0.253325
vt 0.120474 0.252709
vt 0.062203 0.252093
vt 0.061936 0.252089
vt 0.067042 0.600699
vt 0.054699 0.251967
vt 0.067297 0.600693
vt 0.123605 0.600202
vt 0.179912 0.599710
vn 0.000000 -0.000000 1.000000
vn 0.000000 -0.000000 1.000000
vn 0.004203 -0.000500 0.999991
vn 0.004178 0.000440 0.999991
vn -0.000000 0.000000 -1.000000
vn -0.000000 0.000000 -1.000000
vn -0.004377 -0.000482 -0.999990
vn -0.004347 0.000419 -0.999991
vn 0.000000 0.000716 -1.000000
vn 0.000000 -0.000716 -1.000000
vn 0.000000 -0.000000 1.000000
vn 0.000000 -0.000000 1.000000
vn 0.000000 -0.000716 1.000000
vn 0.000000 0.000716 1.000000
vn -0.004347 0.000419 0.999990
vn -0.004377 -0.000482 0.999990
vn 0.004178 0.000440 -0.999991
vn 0.004203 -0.000500 -0.999991
vn -0.000000 0.000000 -1.000000
vn -0.000000 0.000000 -1.000000
vn 0.000000 0.707264 0.706950
vn 0.000000 0.707264 0.706950
vn 0.000000 0.707254 0.706959
vn 0.000000 0.707254 0.706959
vn -0.552648 0.441114 0.707106
vn -0.552648 0.441114 0.707106
vn -0.624962 0.287787 0.725673
vn -0.625003 0.287686 0.725678
vn -0.629975 -0.279049 0.724751
vn -0.630006 -0.278968 0.724755
vn -0.552657 0.441122 -0.707094
vn -0.552657 0.441122 -0.707094
vn -0.625014 0.287691 -0.725666
vn -0.624974 0.287793 -0.725661
vn 0.000000 0.707276 -0.706937
vn 0.000000 0.707276 -0.706937
vn 0.000000 0.707267 -0.706947
vn 0.000000 0.707267 -0.706947
vn -0.630021 -0.278975 -0.724739
vn -0.629989 -0.279055 -0.724736
vn 0.000000 0.707239 -0.706975
vn 0.000000 0.707239 -0.706975
vn 0.000000 0.707257 -0.706956
vn 0.000000 0.707257 -0.706956
vn 0.541539 0.454799 -0.707032
vn 0.541539 0.454799 -0.707032
vn 0.618010 0.299388 -0.726933
vn 0.618022 0.299359 -0.726934
vn 0.000000 0.707263 -0.706950
vn 0.000000 0.707263 -0.706950
vn 0.623060 -0.290925 -0.726057
vn 0.623073 -0.290891 -0.726059
vn 0.541529 0.454791 0.707045
vn 0.541529 0.454791 0.707045
vn 0.618010 0.299353 0.726946
vn 0.617998 0.299382 0.726945
vn 0.000000 0.707227 0.706987
vn 0.000000 0.707227 0.706987
vn 0.000000 0.707245 0.706969
vn 0.000000 0.707245 0.706969
vn 0.623060 -0.290885 0.726074
vn 0.623046 -0.290918 0.726072
vn 0.000000 0.707251 0.706963
vn 0.000000 0.707251 0.706963
vn 0.549594 -0.444881 -0.707126
vn 0.549594 -0.444881 -0.707126
vn 0.000000 -0.707082 -0.707132
vn 0.000000 -0.707082 -0.707132
vn 0.000000 -0.707082 -0.707132
vn 0.000000 -0.707082 -0.707132
vn 0.000000 -0.707082 -0.707132
vn 0.000000 -0.707082 -0.707132
vn 0.000000 -0.707052 0.707162
vn 0.000000 -0.707052 0.707162
vn 0.000000 -0.707052 0.707161
vn 0.000000 -0.707052 0.707161
vn 0.549581 -0.444870 0.707143
vn 0.549581 -0.444870 0.707143
vn 0.000000 -0.707052 0.707161
vn 0.000000 -0.707052 0.707161
vn -0.560811 -0.430608 0.707155
vn -0.560811 -0.430608 0.707155
vn 0.000000 -0.707052 0.707161
vn 0.000000 -0.707052 0.707161
vn 0.000000 -0.707052 0.707161
vn 0.000000 -0.707052 0.707161
vn 0.000000 -0.707082 -0.707132
vn 0.000000 -0.707082 -0.707132
vn 0.000000 -0.707082 -0.707132
vn 0.000000 -0.707082 -0.707132
vn -0.560825 -0.430618 -0.707138
vn -0.560825 -0.430618 -0.707138
vn -0.781560 0.623830 0.000000
vn -0.781560 0.623830 0.000000
vn -0.781560 0.623830 0.000000
vn -0.781560 0.623830 0.000000
vn 0.000000 -0.000019 -1.000000
vn 0.003725 0.004381 -0.999984
vn 0.765770 0.643114 0.000000
vn 0.765770 0.643114 0.000000
vn 0.765770 0.643114 0.000000
vn 0.765770 0.643114 0.000000
vn 0.000000 -0.000016 1.000000
vn -0.003664 0.004066 0.999985
vn 0.000000 -1.000000 0.000000
vn 0.000000 -1.000000 0.000000
vn 0.000000 -1.000000 0.000000
vn 0.000000 -1.000000 0.000000
vn 0.000000 1.000000 0.000000
vn 0.000000 1.000000 0.000000
vn 0.000000 1.000000 0.000000
vn 0.000000 1.000000 0.000000
vn -0.003548 -0.003865 0.999986
vn 0.000000 -0.000001 1.000000
vn 0.777265 -0.629174 0.000000
vn 0.777265 -0.629174 0.000000
vn 0.777265 -0.629174 0.000000
vn 0.777265 -0.629174 0.000000
vn 1.000000 0.000000 0.000000
vn 1.000000 0.000000 0.000000
vn 1.000000 0.000000 0.000000
vn 1.000000 0.000000 0.000000
vn 0.003603 -0.004163 -0.999985
vn 0.000000 0.000001 -1.000000
vn -0.793161 -0.609013 0.000000
vn -0.793161 -0.609013 0.000000
vn -0.793161 -0.609013 0.000000
vn -0.793161 -0.609013 0.000000
vn -1.000000 0.000000 0.000000
vn -1.000000 0.000000 0.000000
vn -1.000000 0.000000 0.000000
vn -1.000000 0.000000 0.000000
vn -0.001676 -0.002259 -0.999996
vn -0.001663 0.002299 -0.999996
vn -0.003548 -0.003865 -0.999986
vn 0.000000 0.000000 -1.000000
vn 0.001625 -0.002259 0.999996
vn 0.001612 0.002298 0.999996
vn 0.003603 -0.004163 0.999985
vn 0.000000 0.000000 1.000000
vn 0.000000 0.000001 1.000000
vn 0.000000 1.000000 0.000000
vn 0.000000 1.000000 -0.000001
vn 0.000000 1.000000 -0.000001
vn 0.000000 1.000000 0.000000
vn 0.000000 1.000000 -0.000000
vn 0.000000 1.000000 -0.000000
vn 0.000000 -1.000000 0.000000
vn 0.000000 -1.000000 0.000000
vn 0.000000 -1.000000 0.000000
vn 0.000000 -1.000000 0.000000
vn 0.000000 -1.000000 0.000000
vn 0.000000 -1.000000 0.000000
vn 0.003725 0.004381 0.999983
vn 0.000000 -0.000000 1.000000
vn 0.000000 -0.000019 1.000000
vn -0.003664 0.004066 -0.999985
vn 0.000000 0.000000 -1.000000
vn 0.001612 0.002298 -0.999996
vn 0.001625 -0.002259 -0.999996
vn 0.000000 -0.000016 -1.000000
vn 0.000000 -0.000001 -1.000000
vn -0.001663 0.002299 0.999996
vn -0.001676 -0.002259 0.999996
vn -0.004355 0.005766 -0.999974
vn 0.000000 0.003245 -0.999995
vn 0.000000 0.003245 -0.999995
vn 0.000000 0.003245 -0.999995
vn 0.004755 0.006111 -0.999970
vn 0.010214 0.001918 -0.999946
vn 0.010209 -0.001847 -0.999946
vn 0.004567 -0.005872 -0.999972
vn 0.000000 -0.003245 -0.999995
vn 0.000000 -0.003245 -0.999995
vn -0.004209 -0.005565 -0.999976
vn 0.000000 -0.003245 -0.999995
vn -0.010947 -0.001890 -0.999938
vn -0.010953 0.001967 -0.999938
vn 0.000000 0.003245 0.999995
vn 0.000000 0.003245 0.999995
vn 0.000000 0.003245 0.999995
vn -0.004355 0.005766 0.999974
vn -0.010953 0.001967 0.999938
vn -0.010947 -0.001890 0.999938
vn -0.004209 -0.005565 0.999976
vn 0.000000 -0.003245 0.999995
vn 0.000000 -0.003245 0.999995
vn 0.000000 -0.003245 0.999995
vn 0.004567 -0.005872 0.999972
vn 0.010209 -0.001847 0.999946
vn 0.010214 0.001918 0.999946
vn 0.004755 0.006111 0.999970
s 1
g MESH_EDH_StopSign
f 2/51/1 4/32/2 15/65/3 16/66/4
s 2
f 6/47/5 8/29/6 11/60/7 12/62/8
f 104/118/9 89/101/10 8/29/6 6/47/5
s 1
f 1/58/11 3/55/12 96/109/13 97/110/14
f 10/50/15 9/57/16 3/55/12 1/58/11
s 2
f 14/46/17 13/63/18 7/56/19 5/64/20
s 7
f 17/1/21 18/3/22 36/14/23 35/2/24
s 8
f 18/3/25 17/1/26 20/42/27 19/4/28
f 19/4/28 20/42/27 49/40/29 50/5/30
s 9
f 21/76/31 22/7/32 24/44/33 23/28/34
s 10
f 22/7/35 21/34/36 45/73/37 46/8/38
s 9
f 23/28/34 24/44/33 60/45/39 59/43/40
s 10
f 25/75/41 26/30/42 28/11/43 27/74/44
s 12
f 26/30/45 25/75/46 30/72/47 29/59/48
s 10
f 27/74/44 28/11/43 91/103/49 92/104/50
s 12
f 29/59/48 30/72/47 53/71/51 54/61/52
s 13
f 31/52/53 32/12/54 34/48/55 33/31/56
s 7
f 32/12/57 31/52/58 63/54/59 64/13/60
s 13
f 33/31/56 34/48/55 56/49/61 55/39/62
s 7
f 93/106/63 94/107/64 64/13/60 63/54/59
s 12
f 37/70/65 38/15/66 54/61/52 53/71/51
s 15
f 38/15/67 37/70/68 40/69/69 39/16/70
f 39/16/70 40/69/69 101/114/71 102/116/72
s 16
f 41/37/73 42/19/74 44/20/75 43/21/76
s 13
f 42/19/77 41/37/78 55/39/62 56/49/61
s 16
f 43/21/76 44/20/75 99/112/79 100/113/80
s 8
f 47/23/81 48/24/82 50/5/30 49/40/29
s 16
f 48/24/83 47/23/84 52/22/85 51/35/86
s 15
f 57/67/87 58/26/88 61/27/89 62/68/90
s 9
f 58/26/91 57/41/92 59/43/40 60/45/39
s off
f 20/42/93 17/1/94 21/6/95 23/28/96
s 2
f 8/29/6 67/79/97 68/80/98 11/60/7
s off
f 30/38/99 25/9/100 31/52/101 33/31/102
s 1
f 15/65/3 4/32/2 78/90/103 79/91/104
s 17
f 40/17/105 37/33/106 41/37/107 43/21/108
s 18
f 45/53/109 21/6/110 17/1/111 35/2/112
s 1
f 82/94/113 83/95/114 2/51/1 16/66/4
s off
f 37/33/115 53/36/116 55/39/117 41/37/118
f 53/36/119 30/38/120 33/31/121 55/39/122
s 2
f 71/83/123 72/84/124 6/47/5 12/62/8
s off
f 47/23/125 49/40/126 59/43/127 57/25/128
f 49/40/129 20/42/130 23/28/131 59/43/132
s 2
f 75/87/133 76/88/134 13/63/18 14/46/17
f 74/86/135 75/87/133 14/46/17
f 72/84/124 103/117/136 104/118/9 6/47/5
s 1
f 86/98/137 87/99/138 9/57/16 10/50/15
f 10/50/15 85/97/139 86/98/137
f 97/110/14 98/111/140 84/96/141 1/58/11
s 18
f 25/9/142 27/10/143 63/54/144 31/52/145
f 27/10/143 92/105/146 93/106/147 63/54/144
s 17
f 57/25/148 62/18/149 52/22/150 47/23/151
f 100/113/152 101/115/153 40/17/105 43/21/108
s 1
f 9/57/16 87/99/138 88/100/154
f 95/108/155 96/109/13 3/55/12 77/89/156
s 2
f 76/88/134 65/77/157 13/63/18
f 89/101/10 90/102/158 67/79/97 8/29/6
s 1
f 3/55/12 9/57/16 88/100/154 77/89/156
f 84/96/141 85/97/139 10/50/15 1/58/11
s 2
f 11/60/7 68/80/98 69/81/159
f 12/62/8 11/60/7 69/81/159 70/82/160
f 70/82/160 71/83/123 12/62/8
f 13/63/18 65/77/157 66/78/161 7/56/19
f 73/85/162 74/86/135 14/46/17 5/64/20
s 1
f 15/65/3 79/91/104 80/92/163
f 16/66/4 15/65/3 80/92/163 81/93/164
f 16/66/4 81/93/164 82/94/113
s 2
f 66/78/161 65/77/157 22/7/165 46/8/166
f 67/79/97 90/102/158 91/103/167 28/11/168
f 68/80/98 67/79/97 28/11/168 26/30/169
f 69/81/159 68/80/98 26/30/169 29/59/170
f 70/82/160 69/81/159 29/59/170 54/61/171
f 38/15/172 71/83/123 70/82/160 54/61/171
f 39/16/173 72/84/124 71/83/123 38/15/172
f 102/116/174 103/117/136 72/84/124 39/16/173
f 58/26/175 74/86/135 73/85/162 61/27/176
f 58/26/175 60/45/177 75/87/133 74/86/135
f 60/45/177 24/44/178 76/88/134 75/87/133
f 24/44/178 22/7/165 65/77/157 76/88/134
s 1
f 94/107/179 95/108/155 77/89/156 64/13/180
f 79/91/104 78/90/103 36/14/181 18/3/182
f 80/92/163 79/91/104 18/3/182 19/4/183
f 81/93/164 80/92/163 19/4/183 50/5/184
f 82/94/113 81/93/164 50/5/184 48/24/185
f 48/24/185 51/35/186 83/95/114 82/94/113
f 98/111/140 99/112/187 44/20/188 84/96/141
f 44/20/188 42/19/189 85/97/139 84/96/141
f 86/98/137 85/97/139 42/19/189 56/49/190
f 56/49/190 34/48/191 87/99/138 86/98/137
f 88/100/154 87/99/138 34/48/191 32/12/192
f 77/89/156 88/100/154 32/12/192 64/13/180
s 2
f 7/56/19 66/78/161 90/102/158 89/101/10
f 91/103/167 90/102/158 66/78/161 46/8/166
s 10
f 92/104/50 91/103/49 46/8/38 45/73/37
s 18
f 93/106/147 92/105/146 45/53/109 35/2/112
s 7
f 35/2/24 36/14/23 94/107/64 93/106/63
s 1
f 78/90/103 95/108/155 94/107/179 36/14/181
f 4/32/2 96/109/13 95/108/155 78/90/103
f 97/110/14 96/109/13 4/32/2 2/51/1
f 83/95/114 98/111/140 97/110/14 2/51/1
f 51/35/186 99/112/187 98/111/140 83/95/114
s 16
f 100/113/80 99/112/79 51/35/86 52/22/85
s 17
f 62/18/149 101/115/153 100/113/152 52/22/150
s 15
f 102/116/72 101/114/71 62/68/90 61/27/89
s 2
f 61/27/176 73/85/162 103/117/136 102/116/174
f 104/118/9 103/117/136 73/85/162 5/64/20
f 5/64/20 7/56/19 89/101/10 104/118/9
