# This file uses centimeters as units for non-parametric coordinates.

g default
v -0.000004 24.446743 5.072540
v -0.000004 29.220634 1.933258
v -0.000004 25.677715 18.794800
v -0.000004 29.220634 18.478653
v -0.000004 26.514416 20.247635
v -0.000004 27.275150 20.721436
v -0.000004 45.628216 -17.785660
v -0.000004 48.939404 -14.474442
v -0.000004 47.283817 -17.342026
v -0.000004 48.939404 -12.584702
v -0.000004 27.989544 20.657684
v -0.000004 28.654377 20.056686
v -0.000004 48.495800 -16.129990
v -0.000004 34.402935 -17.785660
v -0.000004 29.220634 -12.603348
v -0.000004 32.419754 -17.391068
v -0.000004 30.738489 -16.267776
v -0.000004 29.615108 -14.586411
v -0.000004 32.238815 -4.619873
v -0.000004 35.525280 -6.767273
v -0.000004 42.098209 -8.605988
v -0.000004 47.941032 -10.755936
v -0.000004 39.394596 -17.785660
v 36.701630 24.446743 5.072540
v 36.701630 29.220634 1.933258
v 36.701630 29.220634 18.478653
v 36.701630 48.939404 -14.474442
v 36.701630 48.939404 -12.584702
v 36.701630 25.677715 18.794800
v 36.701630 28.654377 20.056686
v 36.701630 27.989544 20.657654
v 36.701630 27.275150 20.721436
v 36.701630 26.514416 20.247635
v 36.701630 45.628216 -17.785660
v 36.701630 47.283817 -17.342026
v 36.701630 48.495800 -16.129990
v 36.701630 34.402935 -17.785660
v 36.701630 29.220634 -12.603348
v 36.701630 29.615108 -14.586411
v 36.701630 30.738489 -16.267776
v 36.701630 32.419754 -17.391068
v 36.701630 47.941032 -10.755936
v 36.701630 42.098194 -8.605988
v 36.701630 35.525280 -6.767273
v 36.701630 32.238815 -4.619873
v 36.701630 39.394596 -17.785660
v -0.000004 22.763651 3.188843
v -0.000004 22.420193 0.440216
v 36.701630 22.420193 0.440216
v 36.701630 23.026777 1.933258
v 36.701630 22.763651 3.188843
v -36.701637 24.446743 5.072540
v -36.701637 29.220634 1.933258
v -36.701637 29.220634 18.478653
v -36.701637 48.939404 -14.474442
v -36.701637 48.939404 -12.584702
v -36.701637 25.677715 18.794800
v -36.701637 28.654377 20.056686
v -36.701637 27.989544 20.657654
v -36.701637 27.275150 20.721436
v -36.701637 26.514416 20.247635
v -36.701637 45.628216 -17.785660
v -36.701637 47.283817 -17.342026
v -36.701637 48.495800 -16.129990
v -36.701637 34.402935 -17.785660
v -36.701637 29.220634 -12.603348
v -36.701637 29.615108 -14.586411
v -36.701637 30.738489 -16.267776
v -36.701637 32.419754 -17.391068
v -36.701637 47.941032 -10.755936
v -36.701637 42.098194 -8.605988
v -36.701637 35.525280 -6.767273
v -36.701637 32.238815 -4.619873
v -36.701637 39.394596 -17.785660
v -36.701637 22.420193 0.440216
v -36.701637 23.026777 1.933258
v -36.701637 22.763651 3.188843
vt 0.679850 0.412325
vt 0.679850 0.206162
vt 0.714866 0.206162
vt 0.714866 0.412325
vt 0.651811 0.206162
vt 0.651811 0.412325
vt 0.679850 0.000000
vt 0.714866 0.000000
vt 0.724166 0.206162
vt 0.724166 0.412325
vt 0.651811 0.000000
vt 0.640671 0.412325
vt 0.640671 0.206162
vt 0.724166 0.000000
vt 0.730974 0.206162
vt 0.730974 0.412325
vt 0.640671 0.000000
vt 0.631227 0.412325
vt 0.631227 0.206162
vt 0.730974 0.000000
vt 0.631227 0.000000
vt 0.624916 0.412325
vt 0.624916 0.206162
vt 0.624916 0.000000
vt 0.991714 0.412325
vt 0.991714 0.206163
vt 0.995727 0.206163
vt 0.995727 0.412325
vt 0.987979 0.412325
vt 0.987979 0.206163
vt 0.991714 0.000000
vt 0.995727 0.000000
vt 1.000000 0.206163
vt 1.000000 0.412325
vt 0.987979 0.000000
vt 1.000000 0.000000
vt 0.761161 0.206162
vt 0.793982 0.206162
vt 0.793982 0.412325
vt 0.761161 0.412325
vt 0.761161 0.000000
vt 0.793982 0.000000
vt 0.830904 0.412325
vt 0.830904 0.206162
vt 0.830904 0.000000
vt 0.849365 0.206162
vt 0.849365 0.412325
vt 0.849365 0.000000
vt 0.886175 0.206162
vt 0.886175 0.412325
vt 0.886175 0.000000
vt 0.979115 0.412325
vt 0.979115 0.206163
vt 0.979115 0.000000
vt 0.514487 0.412325
vt 0.437406 0.412325
vt 0.437406 0.206162
vt 0.514487 0.206162
vt 0.429245 0.412325
vt 0.429245 0.206162
vt 0.514487 0.000000
vt 0.437406 0.000000
vt 0.525068 0.206162
vt 0.525068 0.412325
vt 0.429245 0.000000
vt 0.525068 0.000000
vt 0.540508 0.206162
vt 0.540508 0.412325
vt 0.540508 0.000000
vt 0.613777 0.206162
vt 0.613777 0.412325
vt 0.613777 0.000000
vt 0.740274 0.206162
vt 0.740274 0.412325
vt 0.750889 0.206162
vt 0.750889 0.412325
vt 0.740274 0.000000
vt 0.750889 0.000000
vt 0.143949 0.028231
vt 0.134963 0.002408
vt 0.141541 0.008987
vt 0.143949 0.017974
vt 0.138530 0.038158
vt 0.125976 0.000000
vt 0.106815 0.049828
vt 0.092139 0.000000
vt 0.071136 0.059809
vt 0.065044 0.000000
vt 0.053297 0.071465
vt 0.054279 0.002142
vt 0.045153 0.008239
vt 0.039055 0.017366
vt 0.036914 0.028130
vt 0.036914 0.107036
vt 0.000000 0.098932
vt 0.003293 0.107036
vt 0.001864 0.113852
vt 0.011000 0.124077
vt 0.036914 0.196847
vt 0.017682 0.198563
vt 0.033840 0.205413
vt 0.022224 0.206449
vt 0.030231 0.208675
vt 0.026353 0.209021
vt 0.145637 0.028231
vt 0.145637 0.017974
vt 0.148044 0.008987
vt 0.154623 0.002408
vt 0.151056 0.038158
vt 0.163610 0.000000
vt 0.182771 0.049828
vt 0.197447 0.000000
vt 0.218450 0.059809
vt 0.224542 0.000000
vt 0.236289 0.071465
vt 0.235307 0.002142
vt 0.244433 0.008239
vt 0.250531 0.017366
vt 0.252672 0.028130
vt 0.252672 0.107036
vt 0.289586 0.098932
vt 0.286293 0.107036
vt 0.287722 0.113852
vt 0.278586 0.124077
vt 0.271904 0.198563
vt 0.252672 0.196847
vt 0.267362 0.206449
vt 0.255746 0.205413
vt 0.263233 0.209021
vt 0.259355 0.208675
vn 0.000000 0.908294 0.418333
vn 0.000000 0.908294 0.418333
vn 0.000000 0.908294 0.418333
vn 0.000000 0.908294 0.418333
vn 0.000000 1.000000 0.000000
vn 0.000000 1.000000 0.000000
vn 0.000000 1.000000 0.000000
vn 0.000000 1.000000 0.000000
vn 0.000000 -0.996001 0.089347
vn 0.000000 -0.996001 0.089347
vn 0.000000 -0.996001 0.089347
vn 0.000000 -0.996001 0.089347
vn 1.000000 -0.000001 0.000000
vn 1.000000 -0.000001 0.000000
vn 1.000000 -0.000003 0.000000
vn 1.000000 -0.000003 0.000000
vn 0.000000 0.000000 -1.000000
vn 0.000000 0.000000 -1.000000
vn 0.000000 0.000000 -1.000000
vn 0.000000 0.000000 -1.000000
vn 0.000000 0.941236 0.337751
vn 0.000000 0.941236 0.337751
vn 0.000000 0.941236 0.337751
vn 0.000000 0.941236 0.337751
vn 0.000000 0.088906 0.996040
vn 0.000000 0.088906 0.996040
vn 0.000000 0.088906 0.996040
vn 0.000000 0.088906 0.996040
vn 0.000000 -0.528668 0.848829
vn 0.000000 -0.528668 0.848829
vn 0.000000 -0.528668 0.848829
vn 0.000000 -0.528668 0.848829
vn 0.000000 -0.866566 0.499063
vn 0.000000 -0.866566 0.499063
vn 0.000000 -0.866566 0.499063
vn 0.000000 -0.866566 0.499063
vn 1.000000 -0.000001 0.000000
vn 1.000000 -0.000001 0.000000
vn 1.000000 -0.000001 0.000000
vn 1.000000 -0.000001 0.000000
vn 0.000000 0.965926 -0.258818
vn 0.000000 0.965926 -0.258818
vn 0.000000 0.965926 -0.258818
vn 0.000000 0.965926 -0.258818
vn 0.000000 0.707122 -0.707092
vn 0.000000 0.707122 -0.707092
vn 0.000000 0.707122 -0.707092
vn 0.000000 0.707122 -0.707092
vn 0.000000 0.258828 -0.965923
vn 0.000000 0.258828 -0.965923
vn 0.000000 0.258828 -0.965923
vn 0.000000 0.258828 -0.965923
vn 0.000000 1.000000 0.000000
vn 0.000000 1.000000 0.000000
vn 0.000000 1.000000 0.000000
vn 0.000000 1.000000 0.000000
vn 0.000000 0.670586 0.741832
vn 0.000000 0.670586 0.741832
vn 0.000000 0.670586 0.741832
vn 0.000000 0.670586 0.741832
vn 1.000000 0.000001 0.000000
vn 1.000000 0.000002 0.000000
vn 1.000000 0.000003 0.000000
vn 0.000000 -0.195144 -0.980775
vn 0.000000 -0.195144 -0.980775
vn 0.000000 -0.195144 -0.980775
vn 0.000000 -0.195144 -0.980775
vn 0.000000 -0.555538 -0.831491
vn 0.000000 -0.555538 -0.831491
vn 0.000000 -0.555538 -0.831491
vn 0.000000 -0.555538 -0.831491
vn 0.000000 -0.831486 -0.555545
vn 0.000000 -0.831486 -0.555545
vn 0.000000 -0.831486 -0.555545
vn 0.000000 -0.831486 -0.555545
vn 0.000000 -0.980784 -0.195098
vn 0.000000 -0.980784 -0.195098
vn 0.000000 -0.901941 -0.431859
vn 0.000000 -0.901941 -0.431859
vn 0.000000 0.877722 0.479171
vn 0.000000 0.877722 0.479171
vn 0.000000 0.877722 0.479171
vn 0.000000 0.877722 0.479171
vn 0.000000 0.345327 0.938482
vn 0.000000 0.345327 0.938482
vn 0.000000 0.345327 0.938482
vn 0.000000 0.345327 0.938482
vn 0.000000 0.269399 0.963029
vn 0.000000 0.269399 0.963029
vn 0.000000 0.269398 0.963029
vn 0.000000 0.269399 0.963029
vn 0.000000 0.546992 0.837138
vn 0.000000 0.546992 0.837138
vn 0.000000 0.546992 0.837138
vn 0.000000 0.546992 0.837138
vn 1.000000 0.000000 0.000000
vn 1.000000 0.000000 0.000000
vn 1.000000 0.000000 0.000000
vn 1.000000 0.000000 0.000000
vn 1.000000 0.000000 0.000000
vn 1.000000 0.000000 0.000000
vn 1.000000 0.000000 0.000000
vn 1.000000 0.000000 0.000000
vn 1.000000 0.000000 0.000000
vn 0.000000 0.000000 -1.000000
vn 0.000000 0.000000 -1.000000
vn 1.000000 -0.000001 0.000000
vn 1.000000 -0.000001 0.000000
vn 1.000000 0.000000 0.000000
vn 1.000000 0.000000 0.000000
vn 1.000000 -0.000001 0.000000
vn 1.000000 -0.000001 0.000000
vn 1.000000 0.000001 0.000000
vn 1.000000 0.000000 0.000000
vn 0.000000 -0.992283 0.123993
vn 0.000000 -0.992283 0.123993
vn 0.000000 -0.992283 0.123993
vn 0.000000 -0.992283 0.123993
vn 0.000000 -0.745698 0.666284
vn 0.000000 -0.745698 0.666284
vn 0.000000 -0.745698 0.666284
vn 0.000000 -0.745698 0.666284
vn 0.000000 -0.886721 -0.462305
vn 0.000000 -0.886721 -0.462305
vn 1.000000 -0.000001 0.000000
vn 0.000000 0.908294 0.418333
vn 0.000000 0.908294 0.418333
vn 0.000000 0.908294 0.418333
vn 0.000000 0.908294 0.418333
vn 0.000000 1.000000 0.000000
vn 0.000000 1.000000 0.000000
vn 0.000000 1.000000 0.000000
vn 0.000000 1.000000 0.000000
vn 0.000000 -0.996001 0.089347
vn 0.000000 -0.996001 0.089347
vn 0.000000 -0.996001 0.089347
vn 0.000000 -0.996001 0.089347
vn -1.000000 0.000000 0.000000
vn -1.000000 0.000000 0.000000
vn -1.000000 0.000000 0.000000
vn -1.000000 0.000000 0.000000
vn 0.000000 0.000000 -1.000000
vn 0.000000 0.000000 -1.000000
vn 0.000000 0.000000 -1.000000
vn 0.000000 0.000000 -1.000000
vn 0.000000 0.941236 0.337751
vn 0.000000 0.941236 0.337751
vn 0.000000 0.941236 0.337751
vn 0.000000 0.941236 0.337751
vn -0.000000 0.088906 0.996040
vn -0.000000 0.088906 0.996040
vn -0.000000 0.088906 0.996040
vn -0.000000 0.088906 0.996040
vn 0.000000 -0.528668 0.848829
vn 0.000000 -0.528668 0.848829
vn 0.000000 -0.528668 0.848829
vn 0.000000 -0.528668 0.848829
vn 0.000000 -0.866566 0.499063
vn 0.000000 -0.866566 0.499063
vn 0.000000 -0.866566 0.499063
vn 0.000000 -0.866566 0.499063
vn -1.000000 -0.000000 0.000000
vn -1.000000 -0.000000 0.000000
vn -1.000000 -0.000000 0.000000
vn -1.000000 -0.000000 0.000000
vn 0.000000 0.965926 -0.258818
vn 0.000000 0.965926 -0.258818
vn 0.000000 0.965926 -0.258818
vn 0.000000 0.965926 -0.258818
vn 0.000000 0.707122 -0.707092
vn 0.000000 0.707122 -0.707092
vn 0.000000 0.707122 -0.707092
vn 0.000000 0.707122 -0.707092
vn 0.000000 0.258828 -0.965923
vn 0.000000 0.258828 -0.965923
vn 0.000000 0.258828 -0.965923
vn 0.000000 0.258828 -0.965923
vn 0.000000 1.000000 0.000000
vn 0.000000 1.000000 0.000000
vn 0.000000 1.000000 0.000000
vn 0.000000 1.000000 0.000000
vn -0.000000 0.670585 0.741832
vn -0.000000 0.670586 0.741832
vn -0.000000 0.670586 0.741832
vn -0.000000 0.670585 0.741832
vn -1.000000 0.000000 0.000000
vn -1.000000 0.000000 0.000000
vn -1.000000 0.000000 0.000000
vn 0.000000 -0.195144 -0.980775
vn 0.000000 -0.195144 -0.980775
vn 0.000000 -0.195144 -0.980775
vn 0.000000 -0.195144 -0.980775
vn 0.000000 -0.555538 -0.831491
vn 0.000000 -0.555538 -0.831491
vn 0.000000 -0.555538 -0.831491
vn 0.000000 -0.555538 -0.831491
vn 0.000000 -0.831486 -0.555545
vn 0.000000 -0.831486 -0.555545
vn 0.000000 -0.831486 -0.555545
vn 0.000000 -0.831486 -0.555545
vn 0.000000 -0.980784 -0.195098
vn 0.000000 -0.901941 -0.431859
vn 0.000000 -0.980784 -0.195098
vn 0.000000 0.877722 0.479171
vn 0.000000 0.877722 0.479171
vn 0.000000 0.877722 0.479171
vn 0.000000 0.877722 0.479171
vn -0.000000 0.345327 0.938482
vn -0.000000 0.345327 0.938482
vn -0.000000 0.345327 0.938482
vn -0.000000 0.345327 0.938482
vn -0.000000 0.269398 0.963029
vn -0.000000 0.269398 0.963029
vn -0.000000 0.269398 0.963029
vn -0.000000 0.269398 0.963029
vn 0.000000 0.546992 0.837138
vn 0.000000 0.546992 0.837138
vn 0.000000 0.546992 0.837138
vn 0.000000 0.546992 0.837138
vn -1.000000 0.000000 0.000000
vn -1.000000 0.000000 0.000000
vn -1.000000 0.000000 0.000000
vn -1.000000 0.000000 0.000000
vn -1.000000 0.000000 0.000000
vn -1.000000 0.000000 0.000000
vn -1.000000 0.000000 0.000000
vn -1.000000 0.000000 0.000000
vn -1.000000 0.000000 0.000000
vn 0.000000 0.000000 -1.000000
vn 0.000000 0.000000 -1.000000
vn -1.000000 -0.000000 0.000000
vn -1.000000 -0.000000 0.000000
vn -1.000000 -0.000002 0.000000
vn -1.000000 -0.000002 0.000000
vn -1.000000 -0.000000 0.000000
vn -1.000000 -0.000001 0.000000
vn -1.000000 0.000000 0.000000
vn -1.000000 -0.000000 0.000000
vn 0.000000 -0.992283 0.123993
vn 0.000000 -0.992283 0.123993
vn 0.000000 -0.745698 0.666284
vn 0.000000 -0.745698 0.666284
vn 0.000000 -0.886721 -0.462305
vn -1.000000 0.000000 0.000000
s off
g MESH_EDH_Bench MESH_EDH_BustBench_GRP
f 19/46/1 2/49/2 25/50/3 45/47/4
f 26/52/5 25/50/6 2/49/7 4/53/8
f 24/55/9 29/56/10 3/57/11 1/58/12
s 1
f 28/79/13 35/80/14 36/81/15 27/82/16
s 2
f 46/1/17 23/2/18 7/3/19 34/4/20
s off
f 26/52/21 4/53/22 12/30/23 30/29/24
f 31/25/25 11/26/26 6/27/27 32/28/28
f 32/28/29 6/27/30 5/33/31 33/34/32
f 33/59/33 5/60/34 3/57/35 29/56/36
s 3
f 24/98/37 25/94/38 26/99/39 29/100/40
s off
f 8/73/41 27/74/42 36/16/43 13/15/44
f 13/15/45 36/16/46 35/10/47 9/9/48
f 9/9/49 35/10/50 34/4/51 7/3/52
f 8/73/53 10/75/54 28/76/55 27/74/56
f 30/29/57 12/30/58 11/26/59 31/25/60
s 1
f 38/93/61 45/89/62 25/94/63
s off
f 14/5/64 37/6/65 41/12/66 16/13/67
f 16/13/68 41/12/69 40/18/70 17/19/71
f 17/19/72 40/18/73 39/22/74 18/23/75
s 5
f 18/23/76 39/22/77 38/71/78 15/70/79
s off
f 10/75/80 22/37/81 42/40/82 28/76/83
f 22/37/84 21/38/85 43/39/86 42/40/87
f 44/43/88 43/39/89 21/38/90 20/44/91
f 20/44/92 19/46/93 45/47/94 44/43/95
s 1
f 42/83/96 34/84/97 35/80/14 28/79/13
f 44/87/98 37/88/99 46/86/100 43/85/101
f 45/89/62 41/90/102 37/88/99 44/87/98
f 45/89/62 39/92/103 40/91/104
s 2
f 14/5/105 23/2/18 46/1/17 37/6/106
s 1
f 43/85/101 46/86/100 34/84/97 42/83/96
s 3
f 29/100/40 26/99/39 30/101/107 33/102/108
f 33/102/108 30/101/107 31/103/109 32/104/110
f 49/95/111 25/94/112 50/96/113
f 51/97/114 25/94/38 24/98/37
s 8
f 47/63/115 48/67/116 49/68/117 51/64/118
s 9
f 1/58/119 47/63/120 51/64/121 24/55/122
s 5
f 49/68/123 48/67/124 15/70/79 38/71/78
s 3
f 49/95/111 50/96/113 51/97/114
s 1
f 45/89/62 40/91/104 41/90/102
f 38/93/61 39/92/103 45/89/62
s 3
f 38/93/125 25/94/112 49/95/111
f 51/97/114 50/96/113 25/94/38
s off
f 19/46/126 73/48/127 53/51/128 2/49/129
f 54/54/130 4/53/131 2/49/132 53/51/133
f 52/61/134 1/58/135 3/57/136 57/62/137
s 10
f 56/105/138 55/106/139 64/107/140 63/108/141
s 11
f 74/7/142 62/8/143 7/3/144 23/2/145
s off
f 54/54/146 58/35/147 12/30/148 4/53/149
f 59/31/150 60/32/151 6/27/152 11/26/153
f 60/32/154 61/36/155 5/33/156 6/27/157
f 61/65/158 57/62/159 3/57/160 5/60/161
s 12
f 52/124/162 57/125/163 54/126/164 53/120/165
s off
f 8/73/166 13/15/167 64/20/168 55/77/169
f 13/15/170 9/9/171 63/14/172 64/20/173
f 9/9/174 7/3/175 62/8/176 63/14/177
f 8/73/178 55/77/179 56/78/180 10/75/181
f 58/35/182 59/31/183 11/26/184 12/30/185
s 10
f 66/119/186 53/120/187 73/115/188
s off
f 14/5/189 16/13/190 69/17/191 65/11/192
f 16/13/193 17/19/194 68/21/195 69/17/196
f 17/19/197 18/23/198 67/24/199 68/21/200
s 5
f 18/23/201 15/70/79 66/72/202 67/24/203
s off
f 10/75/204 56/78/205 70/41/206 22/37/207
f 22/37/208 70/41/209 71/42/210 21/38/211
f 72/45/212 20/44/213 21/38/214 71/42/215
f 20/44/216 72/45/217 73/48/218 19/46/219
s 10
f 70/109/220 56/105/138 63/108/141 62/110/221
f 72/113/222 71/111/223 74/112/224 65/114/225
f 73/115/188 72/113/222 65/114/225 69/116/226
f 73/115/188 68/117/227 67/118/228
s 11
f 14/5/229 65/11/230 74/7/142 23/2/145
s 10
f 71/111/223 70/109/220 62/110/221 74/112/224
s 12
f 57/125/163 61/127/231 58/128/232 54/126/164
f 61/127/231 60/129/233 59/130/234 58/128/232
f 75/121/235 76/122/236 53/120/237
f 77/123/238 52/124/162 53/120/165
s 8
f 47/63/115 77/66/239 75/69/240 48/67/116
s 9
f 1/58/119 52/61/241 77/66/242 47/63/120
s 5
f 75/69/243 66/72/202 15/70/79 48/67/124
s 12
f 75/121/235 77/123/238 76/122/236
s 10
f 73/115/188 69/116/226 68/117/227
f 66/119/186 73/115/188 67/118/228
s 12
f 66/119/244 75/121/235 53/120/237
f 77/123/238 53/120/165 76/122/236
g default
v 0.000000 31.056293 -13.569839
v -3.357185 6.332887 -10.430389
v 0.000000 6.332887 -13.569839
v 0.000000 2.010548 -18.282486
v -3.357185 31.056293 -10.430389
v 0.000000 0.000000 -18.282486
v -3.357189 0.000000 -15.143021
v -3.357193 0.000000 0.000000
v -32.395248 0.000000 -0.000031
v -32.395241 0.000000 -10.430389
v 0.000000 22.419413 0.000000
v 0.000000 2.010548 0.000000
v 0.000000 0.000000 0.000000
v 0.000000 0.000000 -10.430389
v -3.357193 2.010548 0.000000
v -3.357189 2.010548 -15.143021
v -32.395241 2.010548 -10.430389
v -32.395248 2.010548 -0.000031
v -3.357189 22.419413 0.000000
v -3.357193 6.949228 0.000000
v 0.000000 6.949228 0.000000
v 3.357185 6.332887 -10.430389
v 3.357185 31.056293 -10.430389
v 3.357189 0.000000 -15.143021
v 3.357193 0.000000 0.000000
v 32.395248 0.000000 -0.000031
v 32.395241 0.000000 -10.430389
v 3.357193 2.010548 0.000000
v 3.357189 2.010548 -15.143021
v 32.395241 2.010548 -10.430389
v 32.395248 2.010548 -0.000031
v 3.357189 22.419413 0.000000
v 3.357193 6.949228 0.000000
v 0.000000 31.056288 -10.430405
vt 0.038068 0.365942
vt 0.011014 0.365942
vt 0.011014 0.347551
vt 0.038068 0.347551
vt 0.000000 0.365942
vt 0.000000 0.347551
vt 0.038068 0.329160
vt 0.011014 0.329160
vt 0.122815 0.347551
vt 0.122815 0.365942
vt 0.011014 0.525014
vt 0.000000 0.525014
vt 0.000000 0.329160
vt 0.122815 0.329160
vt 0.169053 0.347551
vt 0.171202 0.380227
vt 0.000000 0.170088
vt 0.011014 0.170088
vt 0.171203 0.314876
vt 0.335691 0.365940
vt 0.345628 0.365940
vt 0.358537 0.525012
vt 0.335693 0.525012
vt 0.335691 0.347550
vt 0.337028 0.347550
vt 0.312013 0.347550
vt 0.312013 0.365941
vt 0.335691 0.329159
vt 0.345627 0.329159
vt 0.312013 0.329159
vt 0.180876 0.347551
vt 0.335689 0.170087
vt 0.358534 0.170087
vt 0.427504 0.347549
vt 0.427505 0.365939
vt 0.370366 0.347549
vt 0.427506 0.525011
vt 0.427504 0.329158
vt 0.427502 0.170086
vt 0.344554 0.695098
vt 0.370368 0.536026
vt 0.427506 0.536025
vt 0.427508 0.695097
vt 0.344545 0.000002
vt 0.427499 0.000000
vt 0.427502 0.159072
vt 0.370364 0.159073
vt 0.011013 0.448896
vt 0.034692 0.423080
vt 0.011014 0.246206
vt 0.034692 0.272022
vn -0.683025 0.000000 -0.730395
vn -0.683025 0.000000 -0.730395
vn -0.683025 0.000000 -0.730395
vn -0.683025 0.000000 -0.730395
vn 0.000000 0.000000 1.000000
vn 0.000000 0.000000 1.000000
vn 0.000000 0.000000 1.000000
vn 0.000000 0.000000 1.000000
vn -0.683026 0.000000 -0.730394
vn -0.683026 0.000000 -0.730394
vn -0.683026 0.000000 -0.730394
vn -0.683026 0.000000 -0.730394
vn 0.000000 -1.000000 0.000000
vn 0.000000 -1.000000 0.000000
vn 0.000000 -1.000000 0.000000
vn 0.000000 -1.000000 0.000000
vn 0.000000 0.000000 1.000000
vn 0.000000 0.000000 1.000000
vn 0.000000 0.000000 1.000000
vn 0.000000 0.000000 1.000000
vn -1.000000 0.000000 -0.000001
vn -1.000000 0.000000 -0.000001
vn -1.000000 0.000000 -0.000001
vn -1.000000 0.000000 -0.000001
vn -0.000001 0.000000 1.000000
vn -0.000001 0.000000 1.000000
vn -0.000001 0.000000 1.000000
vn -0.000001 0.000000 1.000000
vn 0.000000 -1.000000 0.000000
vn 0.000000 -1.000000 0.000000
vn 0.000000 -1.000000 0.000000
vn 0.000000 -1.000000 0.000000
vn -0.160196 0.000000 -0.987085
vn -0.160196 0.000000 -0.987085
vn -0.160196 0.000000 -0.987085
vn -0.160196 0.000000 -0.987085
vn -0.534303 0.622952 -0.571359
vn -0.534303 0.622952 -0.571359
vn -0.534303 0.622952 -0.571359
vn -0.534303 0.622952 -0.571359
vn 0.000000 -1.000000 0.000000
vn 0.000000 -1.000000 0.000000
vn 0.000000 -1.000000 0.000000
vn 0.000000 1.000000 -0.000000
vn 0.000000 1.000000 -0.000000
vn 0.000000 1.000000 -0.000000
vn 0.000000 1.000000 -0.000000
vn 0.000000 0.000000 1.000000
vn 0.000000 0.000000 1.000000
vn -1.000000 0.000001 -0.000000
vn -1.000000 0.000001 -0.000000
vn -1.000000 0.000001 -0.000000
vn -1.000000 0.000001 -0.000000
vn -1.000000 0.000000 -0.000001
vn -1.000000 0.000000 -0.000001
vn -1.000000 0.000000 -0.000001
vn -1.000000 0.000000 -0.000001
vn 0.683025 0.000000 -0.730395
vn 0.683025 0.000000 -0.730395
vn 0.683025 0.000000 -0.730395
vn 0.683025 0.000000 -0.730395
vn 0.000000 0.000000 1.000000
vn 0.000000 0.000000 1.000000
vn 0.000000 0.000000 1.000000
vn 0.000000 0.000000 1.000000
vn 0.683026 0.000000 -0.730394
vn 0.683026 0.000000 -0.730394
vn 0.683026 0.000000 -0.730394
vn 0.683026 0.000000 -0.730394
vn 0.000000 -1.000000 0.000000
vn 0.000000 -1.000000 0.000000
vn 0.000000 -1.000000 0.000000
vn 0.000000 -1.000000 0.000000
vn 0.000000 0.000000 1.000000
vn 0.000000 0.000000 1.000000
vn 0.000000 0.000000 1.000000
vn 0.000000 0.000000 1.000000
vn 1.000000 0.000000 -0.000001
vn 1.000000 0.000000 -0.000001
vn 1.000000 0.000000 -0.000001
vn 1.000000 0.000000 -0.000001
vn 0.000001 0.000000 1.000000
vn 0.000001 0.000000 1.000000
vn 0.000001 0.000000 1.000000
vn 0.000001 0.000000 1.000000
vn 0.000000 -1.000000 0.000000
vn 0.000000 -1.000000 0.000000
vn 0.000000 -1.000000 0.000000
vn 0.000000 -1.000000 0.000000
vn 0.160196 0.000000 -0.987085
vn 0.160196 0.000000 -0.987085
vn 0.160196 0.000000 -0.987085
vn 0.160196 0.000000 -0.987085
vn 0.534303 0.622952 -0.571359
vn 0.534303 0.622952 -0.571359
vn 0.534303 0.622952 -0.571359
vn 0.534303 0.622952 -0.571359
vn 0.000000 -1.000000 0.000000
vn 0.000000 -1.000000 0.000000
vn 0.000000 -1.000000 0.000000
vn 0.000000 1.000000 0.000000
vn 0.000000 1.000000 0.000000
vn 0.000000 1.000000 0.000000
vn 0.000000 1.000000 0.000000
vn 0.000000 0.000000 1.000000
vn 0.000000 0.000000 1.000000
vn 1.000000 0.000001 -0.000000
vn 1.000000 0.000001 -0.000000
vn 1.000000 0.000001 -0.000000
vn 1.000000 0.000001 -0.000000
vn 1.000000 0.000000 -0.000001
vn 1.000000 0.000000 -0.000001
vn 1.000000 0.000000 -0.000001
vn 1.000000 0.000000 -0.000001
vn 0.000000 1.000000 0.000003
vn 0.000002 0.791408 0.611289
vn 0.000000 0.811637 0.584162
vn -0.000002 0.791408 0.611289
vn 0.000002 0.770219 0.637779
vn 0.000000 0.770219 0.637779
vn -0.000002 0.770219 0.637779
s off
g MESH_EDH_BustBench_GRP MESH_EDH_Bench_Support
f 82/146/245 78/161/246 80/156/247 79/157/248
s 1
f 97/131/249 92/132/250 89/133/251 98/134/252
s off
f 93/150/253 81/154/254 83/155/255 84/151/256
f 90/164/257 85/165/258 84/151/259 91/166/260
f 89/133/261 92/132/262 85/135/263 90/136/264
f 95/172/265 94/171/266 87/152/267 86/167/268
f 85/135/269 92/132/270 95/141/271 86/142/272
f 84/151/273 85/165/274 86/167/275 87/152/276
f 93/150/277 84/151/278 87/152/279 94/153/280
f 80/156/281 81/154/282 93/150/283 79/157/284
f 84/151/285 83/155/286 91/166/287
f 93/170/288 94/171/289 95/172/290 92/173/291
s 1
f 88/139/292 96/140/293 97/131/249 98/134/252
s off
f 93/178/294 92/132/295 97/131/296 79/179/297
f 79/179/298 97/131/299 96/140/300 82/146/301
f 100/149/302 99/160/303 80/156/304 78/161/305
s 2
f 110/137/306 98/134/307 89/133/308 105/138/309
s off
f 106/158/310 101/159/311 83/155/312 81/154/313
f 90/164/314 91/166/315 101/159/316 102/168/317
f 89/133/318 90/136/319 102/143/320 105/138/321
f 108/176/322 103/169/323 104/163/324 107/177/325
f 102/143/326 103/147/327 108/148/328 105/138/329
f 101/159/330 104/163/331 103/169/332 102/168/333
f 106/158/334 107/162/335 104/163/336 101/159/337
f 80/156/338 99/160/339 106/158/340 81/154/341
f 101/159/342 91/166/343 83/155/344
f 106/174/345 105/175/346 108/176/347 107/177/348
s 2
f 88/139/349 98/134/307 110/137/306 109/144/350
s off
f 106/180/351 99/181/352 110/137/353 105/138/354
f 99/181/355 100/149/356 109/144/357 110/137/358
s 3
f 78/161/359 82/146/360 111/145/361
f 78/161/359 111/145/361 100/149/362
f 111/145/361 82/146/360 96/140/363 88/139/364
f 100/149/362 111/145/361 88/139/364 109/144/365
