# This file uses centimeters as units for non-parametric coordinates.

g default
v 0.000000 37.274319 0.000000
v 0.000000 37.274319 9.918228
v 0.000000 39.273785 14.604706
v 0.000000 13.814745 40.063766
v 0.000000 39.678486 13.170914
v 0.000000 12.380963 40.468445
v 0.000000 9.128271 38.064270
v 77.980606 37.274319 0.000000
v 38.990284 37.274319 0.000000
v 77.980606 37.274319 9.918228
v 77.980606 9.128271 38.064270
v 51.987064 37.274319 9.918228
v 51.987064 9.128271 38.064270
v 25.993553 9.128271 38.064270
v 25.993526 37.274319 9.918228
v 28.712568 37.274319 0.000000
v 23.274487 37.274319 0.000000
v 54.706100 37.274319 0.000000
v 49.268028 37.274319 0.000000
v 2.719009 37.274319 9.918228
v 2.719009 9.128271 38.064270
v 41.709339 9.128271 38.064270
v 36.271278 9.128271 38.064270
v 36.271278 37.274319 9.918228
v 41.709339 37.274319 9.918228
v 41.109333 39.678486 13.170914
v 41.109333 12.380963 40.468445
v 36.871277 39.678486 13.170914
v 36.871277 12.380963 40.468445
v 2.119007 39.678486 13.170914
v 2.119007 12.380963 40.468445
v 39.809338 39.273785 14.604706
v 39.809338 13.814747 40.063766
v 38.171276 39.273785 14.604706
v 38.171276 13.814747 40.063766
v 77.980606 7.901026 0.000000
v 54.706100 7.901027 0.000000
v 49.208855 7.901026 0.000000
v 38.974213 7.901028 0.000000
v 28.739576 7.901027 0.000000
v 23.274487 7.901026 0.000000
v 0.000000 7.901027 0.000000
v 0.000000 1.227244 38.064270
v 77.980606 1.227244 38.064270
v 51.987064 1.227244 38.064270
v 25.993553 1.227244 38.064270
v 41.709339 1.227244 38.064270
v 36.271278 1.227244 38.064270
v 77.980606 -0.000000 0.000000
v 54.706100 0.000000 0.000000
v 49.208855 -0.000000 0.000000
v 38.974213 0.000001 0.000000
v 28.739576 0.000000 0.000000
v 23.274487 -0.000000 0.000000
v 0.000000 0.000000 0.000000
v -77.980606 37.274319 0.000000
v -38.990284 37.274319 0.000000
v -77.980606 37.274319 9.918228
v -77.980606 9.128271 38.064270
v -51.987064 37.274319 9.918228
v -51.987064 9.128271 38.064270
v -25.993553 9.128271 38.064270
v -25.993526 37.274319 9.918228
v -28.712566 37.274319 0.000000
v -23.274487 37.274319 0.000000
v -54.706104 37.274319 0.000000
v -49.268024 37.274319 0.000000
v -2.719009 37.274319 9.918228
v -2.719009 9.128271 38.064270
v -41.709339 9.128271 38.064270
v -36.271278 9.128271 38.064270
v -36.271278 37.274319 9.918228
v -41.709339 37.274319 9.918228
v -41.109333 39.678486 13.170914
v -41.109333 12.380963 40.468445
v -36.871277 39.678486 13.170914
v -36.871277 12.380963 40.468445
v -2.119007 39.678486 13.170914
v -2.119007 12.380963 40.468445
v -39.809338 39.273785 14.604706
v -39.809338 13.814747 40.063766
v -38.171276 39.273785 14.604706
v -38.171276 13.814747 40.063766
v -77.980606 7.901026 0.000000
v -54.706104 7.901027 0.000000
v -49.208851 7.901026 0.000000
v -38.974213 7.901028 0.000000
v -28.739574 7.901027 0.000000
v -23.274487 7.901026 0.000000
v -77.980606 1.227244 38.064270
v -51.987064 1.227244 38.064270
v -25.993553 1.227244 38.064270
v -41.709339 1.227244 38.064270
v -36.271278 1.227244 38.064270
v -77.980606 -0.000000 0.000000
v -54.706104 0.000000 0.000000
v -49.208851 -0.000000 0.000000
v -38.974213 0.000001 0.000000
v -28.739574 0.000000 0.000000
v -23.274487 -0.000000 0.000000
vt 0.224353 0.309059
vt 0.381132 0.315380
vt 0.367000 0.325745
vt 0.240304 0.318966
vt 0.380253 0.349812
vt 0.223893 0.343629
vt 0.237852 0.333163
vt 0.364677 0.339881
vt 0.218214 0.480469
vt 0.372741 0.486953
vt 0.356949 0.496694
vt 0.231336 0.490694
vt 0.224306 0.159908
vt 0.222402 0.000675
vt 0.430268 0.167594
vt 0.388944 0.165998
vt 0.191187 0.159477
vt 0.189361 0.000000
vt 0.206558 0.684776
vt 0.223340 0.676409
vt 0.349898 0.681546
vt 0.362951 0.693183
vt 0.365356 0.658872
vt 0.348931 0.667273
vt 0.222231 0.662049
vt 0.209335 0.650325
vt 0.216647 0.513590
vt 0.230676 0.504648
vt 0.356280 0.510528
vt 0.371052 0.521734
vt 0.192701 0.833147
vt 0.356819 0.842445
vt 0.298865 1.000000
vt 0.176410 0.991403
vt 0.143475 0.989086
vt 0.159725 0.830557
vt 0.360693 0.334978
vt 0.361524 0.329987
vt 0.243372 0.328921
vt 0.244247 0.323906
vt 0.424421 0.334788
vt 0.426536 0.289488
vt 0.385128 0.273754
vt 0.423482 0.380260
vt 0.381473 0.391057
vt 0.222608 0.267442
vt 0.427560 0.265933
vt 0.422634 0.404093
vt 0.220202 0.384615
vt 0.417146 0.506537
vt 0.373317 0.504414
vt 0.357148 0.503637
vt 0.352077 0.503395
vt 0.412656 0.608945
vt 0.370505 0.617971
vt 0.235284 0.497872
vt 0.411211 0.632723
vt 0.407761 0.678002
vt 0.209529 0.609192
vt 0.405562 0.723218
vt 0.362993 0.734947
vt 0.404375 0.746722
vt 0.200943 0.726027
vt 0.344860 0.676814
vt 0.344507 0.671773
vt 0.227722 0.671861
vt 0.227321 0.666788
vt 0.189475 0.268670
vt 0.027850 0.254236
vt 0.030954 0.155444
vt 0.027355 0.277696
vt 0.189665 0.312985
vt 0.026251 0.321334
vt 0.188799 0.337747
vt 0.024922 0.365071
vt 0.186924 0.382632
vt 0.024191 0.388407
vt 0.182638 0.495400
vt 0.019827 0.487832
vt 0.176247 0.608066
vt 0.014831 0.587230
vt 0.173895 0.652915
vt 0.013391 0.610541
vt 0.172440 0.677639
vt 0.010641 0.654220
vt 0.168118 0.721727
vt 0.007692 0.697770
vt 0.006024 0.721172
vt 0.000000 0.819784
vt 0.554362 0.170926
vt 0.553063 0.271080
vt 0.588002 0.171174
vt 0.586892 0.271490
vt 0.552478 0.295106
vt 0.586508 0.295603
vt 0.551244 0.340042
vt 0.585452 0.340820
vt 0.549844 0.385300
vt 0.584107 0.386395
vt 0.548881 0.409547
vt 0.583142 0.410853
vt 0.544142 0.512813
vt 0.578447 0.514563
vt 0.538665 0.615962
vt 0.572835 0.618172
vt 0.537194 0.640119
vt 0.571298 0.642544
vt 0.534120 0.685152
vt 0.568068 0.687784
vt 0.531014 0.729657
vt 0.564721 0.732453
vt 0.529329 0.753415
vt 0.562878 0.756222
vt 0.521434 0.852925
vt 0.554845 0.855751
vt 0.215846 0.496956
vt 0.230502 0.497647
vt 0.301764 0.958657
vt 0.397998 0.844671
vt 0.344391 0.044670
vt 0.345246 0.003196
vn 0.000000 0.000000 -1.000000
vn 0.000000 0.000000 -1.000000
vn 0.000000 0.000000 -1.000000
vn 0.000000 0.000000 -1.000000
vn 0.000000 0.707107 0.707107
vn 0.000000 0.707107 0.707107
vn 0.000000 0.707107 0.707107
vn 0.000000 0.707107 0.707107
vn 0.000000 0.707107 0.707107
vn 0.000000 0.707107 0.707107
vn 0.000000 0.707107 0.707107
vn 0.000000 0.707107 0.707107
vn 0.000000 0.707107 0.707107
vn 0.000000 0.707107 0.707107
vn 0.000000 0.707107 0.707107
vn 0.000000 0.000000 -1.000000
vn 0.000000 0.000000 -1.000000
vn 0.000000 0.000000 -1.000000
vn 0.000000 0.000000 -1.000000
vn 0.000000 0.000000 -1.000000
vn 0.000000 0.000000 -1.000000
vn 0.000000 0.000000 -1.000000
vn 0.000000 0.000000 -1.000000
vn 0.000000 0.707107 0.707107
vn 0.000000 0.707107 0.707107
vn 0.000000 0.707107 0.707107
vn 0.000000 0.707107 0.707107
vn 0.000000 0.707108 0.707106
vn 0.000000 0.707108 0.707106
vn 0.000000 0.707108 0.707106
vn 0.000000 0.707108 0.707106
vn 0.988936 0.104893 0.104893
vn 0.988936 0.104893 0.104893
vn 0.988936 0.104893 0.104893
vn 0.988936 0.104893 0.104893
vn 0.000000 0.804175 -0.594392
vn 0.000000 0.804175 -0.594393
vn 0.000000 0.804175 -0.594393
vn 0.000000 0.804175 -0.594393
vn -0.988936 0.104892 0.104892
vn -0.988936 0.104892 0.104892
vn -0.988936 0.104892 0.104892
vn -0.988936 0.104892 0.104892
vn 0.000000 -0.594393 0.804175
vn 0.000000 -0.594393 0.804175
vn 0.000000 -0.594393 0.804175
vn 0.000000 -0.594393 0.804175
vn 0.988936 0.104893 0.104893
vn 0.988936 0.104893 0.104893
vn 0.988936 0.104893 0.104893
vn 0.988936 0.104893 0.104893
vn 0.000000 0.804175 -0.594393
vn 0.000000 0.804175 -0.594393
vn 0.000000 0.804175 -0.594393
vn 0.000000 0.804175 -0.594393
vn 0.000000 -0.594393 0.804175
vn 0.000000 -0.594393 0.804175
vn 0.000000 -0.594393 0.804175
vn 0.000000 -0.594393 0.804175
vn 0.488441 0.617020 0.617018
vn 0.488441 0.617020 0.617019
vn 0.488441 0.617020 0.617018
vn 0.488441 0.617020 0.617018
vn 0.000000 0.962398 0.271645
vn 0.000000 0.962398 0.271645
vn 0.000000 0.962397 0.271645
vn 0.000000 0.962398 0.271645
vn -0.488441 0.617019 0.617019
vn -0.488441 0.617019 0.617019
vn -0.488441 0.617019 0.617019
vn -0.488441 0.617019 0.617019
vn 0.000000 0.271633 0.962401
vn 0.000000 0.271633 0.962401
vn 0.000000 0.271633 0.962401
vn 0.000000 0.271633 0.962401
vn 0.000000 0.962397 0.271648
vn 0.000000 0.962397 0.271648
vn 0.000000 0.962397 0.271648
vn 0.000000 0.271633 0.962401
vn 0.000000 0.271633 0.962401
vn 0.000000 0.271633 0.962401
vn 1.000000 0.000000 0.000000
vn 1.000000 0.000000 0.000000
vn 1.000000 0.000000 0.000000
vn 1.000000 0.000000 0.000000
vn 0.000000 1.000000 0.000000
vn 0.000000 1.000000 0.000000
vn 0.000000 1.000000 0.000000
vn 0.000000 1.000000 0.000000
vn 0.000000 1.000000 0.000000
vn 0.000000 1.000000 0.000000
vn 0.000000 1.000000 0.000000
vn 0.000000 1.000000 0.000000
vn 0.000000 1.000000 0.000000
vn 0.000000 1.000000 0.000000
vn 0.000000 1.000000 0.000000
vn 0.000000 1.000000 0.000000
vn 0.000000 1.000000 0.000000
vn 0.000000 1.000000 0.000000
vn 0.000000 1.000000 0.000000
vn 0.000000 1.000000 0.000000
vn 0.000000 1.000000 0.000000
vn 0.000000 1.000000 0.000000
vn 0.000000 1.000000 0.000000
vn 0.000000 1.000000 0.000000
vn 0.000000 1.000000 0.000000
vn 0.000000 1.000000 0.000000
vn 0.000000 0.707107 0.707107
vn 0.000000 0.000000 -1.000000
vn 0.000000 0.000000 -1.000000
vn 0.000000 0.000000 -1.000000
vn 0.000000 0.000000 -1.000000
vn 0.000000 0.000000 -1.000000
vn 0.000000 0.000000 -1.000000
vn 0.000000 0.000000 -1.000000
vn 0.000000 0.000000 1.000000
vn 0.000000 0.000000 1.000000
vn 0.000000 0.000000 1.000000
vn 0.000000 0.000000 1.000000
vn 0.000000 0.000000 1.000000
vn 0.000000 0.000000 1.000000
vn 0.000000 0.000000 1.000000
vn 0.000000 0.000000 1.000000
vn 0.000000 0.000000 1.000000
vn 0.000000 0.000000 1.000000
vn 0.000000 0.000000 1.000000
vn 0.000000 0.000000 1.000000
vn 0.000000 0.000000 1.000000
vn 0.000000 0.000000 -1.000000
vn 0.000000 0.000000 -1.000000
vn 0.000000 0.000000 -1.000000
vn 0.000000 0.000000 -1.000000
vn 0.000000 0.000000 -1.000000
vn 0.000000 0.000000 -1.000000
vn 0.000000 0.000000 -1.000000
vn 1.000000 0.000000 0.000000
vn 1.000000 0.000000 0.000000
vn -0.000000 -0.999481 0.032225
vn -0.000000 -0.999481 0.032225
vn -0.000000 -0.999481 0.032225
vn -0.000000 -0.999481 0.032225
vn -0.000000 -0.999481 0.032225
vn -0.000000 -0.999481 0.032225
vn -0.000000 -0.999481 0.032225
vn -0.000000 -0.999481 0.032225
vn -0.000000 -0.999481 0.032225
vn -0.000000 -0.999481 0.032225
vn -0.000000 -0.999481 0.032225
vn -0.000000 -0.999481 0.032225
vn 0.000000 -0.999481 0.032225
vn 0.000000 -0.999481 0.032225
vn 0.000000 -0.999481 0.032225
vn 0.000000 -0.999481 0.032225
vn 0.000000 -0.999481 0.032225
vn 0.000000 -0.999481 0.032225
vn 0.000000 -0.999481 0.032225
vn 0.000000 -0.999481 0.032225
vn 0.000000 -0.999481 0.032225
vn 0.000000 -0.999481 0.032225
vn 0.000000 -0.999481 0.032225
vn 0.000000 1.000000 0.000000
vn 0.000000 1.000000 0.000000
vn 0.000000 1.000000 0.000000
vn 0.000000 1.000000 0.000000
vn 0.000000 1.000000 0.000000
vn 0.000000 1.000000 0.000000
vn 0.324789 0.668772 0.668772
vn 0.324789 0.668772 0.668772
vn 0.324789 0.668772 0.668772
vn 0.324789 0.668772 0.668772
vn 0.000000 0.000000 -1.000000
vn 0.000000 0.000000 -1.000000
vn 0.000000 0.000000 -1.000000
vn 0.000000 0.000000 -1.000000
vn 0.000000 0.707107 0.707107
vn 0.000000 0.707107 0.707107
vn 0.000000 0.707107 0.707107
vn 0.000000 0.707107 0.707107
vn 0.000000 0.707107 0.707107
vn 0.000000 0.707107 0.707107
vn 0.000000 0.707107 0.707107
vn 0.000000 0.707107 0.707107
vn 0.000000 0.707107 0.707107
vn 0.000000 0.707107 0.707107
vn 0.000000 0.707107 0.707107
vn 0.000000 0.000000 -1.000000
vn 0.000000 0.000000 -1.000000
vn 0.000000 0.000000 -1.000000
vn 0.000000 0.000000 -1.000000
vn 0.000000 0.000000 -1.000000
vn 0.000000 0.000000 -1.000000
vn 0.000000 0.000000 -1.000000
vn 0.000000 0.000000 -1.000000
vn 0.000000 0.707107 0.707107
vn 0.000000 0.707107 0.707107
vn 0.000000 0.707107 0.707107
vn 0.000000 0.707107 0.707107
vn 0.000000 0.707108 0.707106
vn 0.000000 0.707108 0.707106
vn 0.000000 0.707108 0.707106
vn 0.000000 0.707108 0.707106
vn -0.988936 0.104893 0.104893
vn -0.988936 0.104893 0.104893
vn -0.988936 0.104893 0.104893
vn -0.988936 0.104893 0.104893
vn 0.000000 0.804175 -0.594392
vn 0.000000 0.804175 -0.594392
vn 0.000000 0.804175 -0.594392
vn 0.000000 0.804175 -0.594392
vn 0.988936 0.104892 0.104892
vn 0.988936 0.104892 0.104892
vn 0.988936 0.104892 0.104892
vn 0.988936 0.104892 0.104892
vn 0.000000 -0.594393 0.804175
vn 0.000000 -0.594393 0.804175
vn 0.000000 -0.594393 0.804175
vn 0.000000 -0.594393 0.804175
vn -0.988936 0.104893 0.104893
vn -0.988936 0.104893 0.104893
vn -0.988936 0.104893 0.104893
vn -0.988936 0.104893 0.104893
vn 0.000000 0.804175 -0.594393
vn 0.000000 0.804175 -0.594393
vn 0.000000 0.804175 -0.594393
vn 0.000000 0.804175 -0.594393
vn 0.000000 -0.594393 0.804175
vn 0.000000 -0.594393 0.804175
vn 0.000000 -0.594393 0.804175
vn 0.000000 -0.594393 0.804175
vn -0.488441 0.617020 0.617018
vn -0.488441 0.617020 0.617018
vn -0.488441 0.617020 0.617018
vn -0.488441 0.617020 0.617018
vn 0.000000 0.962397 0.271647
vn 0.000000 0.962397 0.271647
vn 0.000000 0.962397 0.271647
vn 0.000000 0.962397 0.271647
vn 0.488440 0.617020 0.617019
vn 0.488440 0.617020 0.617019
vn 0.488440 0.617020 0.617019
vn 0.488440 0.617020 0.617019
vn 0.000000 0.271632 0.962401
vn 0.000000 0.271632 0.962401
vn 0.000000 0.271633 0.962401
vn 0.000000 0.271633 0.962401
vn 0.000000 0.962397 0.271648
vn 0.000000 0.962397 0.271648
vn 0.000000 0.962397 0.271648
vn 0.000000 0.271633 0.962401
vn 0.000000 0.271633 0.962401
vn 0.000000 0.271633 0.962401
vn -1.000000 0.000000 0.000000
vn -1.000000 0.000000 0.000000
vn -1.000000 0.000000 0.000000
vn -1.000000 0.000000 0.000000
vn 0.000000 1.000000 0.000000
vn 0.000000 1.000000 0.000000
vn 0.000000 1.000000 0.000000
vn 0.000000 1.000000 0.000000
vn 0.000000 1.000000 -0.000000
vn 0.000000 1.000000 -0.000000
vn 0.000000 1.000000 -0.000000
vn 0.000000 1.000000 -0.000000
vn 0.000000 1.000000 0.000000
vn 0.000000 1.000000 0.000000
vn 0.000000 1.000000 0.000000
vn 0.000000 1.000000 0.000000
vn 0.000000 1.000000 0.000000
vn 0.000000 1.000000 0.000000
vn 0.000000 1.000000 0.000000
vn 0.000000 1.000000 0.000000
vn 0.000000 1.000000 0.000000
vn 0.000000 1.000000 0.000000
vn 0.000000 1.000000 0.000000
vn 0.000000 1.000000 0.000000
vn 0.000000 1.000000 0.000000
vn 0.000000 1.000000 0.000000
vn 0.000000 0.707107 0.707107
vn 0.000000 0.000000 -1.000000
vn 0.000000 0.000000 -1.000000
vn 0.000000 0.000000 -1.000000
vn 0.000000 0.000000 -1.000000
vn 0.000000 0.000000 -1.000000
vn 0.000000 0.000000 -1.000000
vn 0.000000 0.000000 -1.000000
vn 0.000000 0.000000 1.000000
vn 0.000000 0.000000 1.000000
vn 0.000000 0.000000 1.000000
vn 0.000000 0.000000 1.000000
vn 0.000000 0.000000 1.000000
vn 0.000000 0.000000 1.000000
vn 0.000000 0.000000 1.000000
vn 0.000000 0.000000 1.000000
vn 0.000000 0.000000 1.000000
vn 0.000000 0.000000 1.000000
vn 0.000000 0.000000 1.000000
vn 0.000000 0.000000 1.000000
vn 0.000000 0.000000 1.000000
vn 0.000000 0.000000 -1.000000
vn 0.000000 0.000000 -1.000000
vn 0.000000 0.000000 -1.000000
vn 0.000000 0.000000 -1.000000
vn 0.000000 0.000000 -1.000000
vn 0.000000 0.000000 -1.000000
vn 0.000000 0.000000 -1.000000
vn -1.000000 0.000000 0.000000
vn -1.000000 0.000000 0.000000
vn 0.000000 -0.999481 0.032225
vn 0.000000 -0.999481 0.032225
vn 0.000000 -0.999481 0.032225
vn 0.000000 -0.999481 0.032225
vn 0.000000 -0.999481 0.032225
vn 0.000000 -0.999481 0.032225
vn 0.000000 -0.999481 0.032225
vn 0.000000 -0.999481 0.032225
vn 0.000000 -0.999481 0.032225
vn 0.000000 -0.999481 0.032225
vn 0.000000 -0.999481 0.032225
vn 0.000000 -0.999481 0.032225
vn -0.000000 -0.999481 0.032225
vn -0.000000 -0.999481 0.032225
vn -0.000000 -0.999481 0.032225
vn -0.000000 -0.999481 0.032225
vn -0.000000 -0.999481 0.032225
vn -0.000000 -0.999481 0.032225
vn -0.000000 -0.999481 0.032225
vn -0.000000 -0.999481 0.032225
vn -0.000000 -0.999481 0.032225
vn -0.000000 -0.999481 0.032225
vn -0.000000 -0.999481 0.032225
vn 0.000000 1.000000 0.000000
vn 0.000000 1.000000 0.000000
vn 0.000000 1.000000 0.000000
vn 0.000000 1.000000 0.000000
vn 0.000000 1.000000 0.000000
vn 0.000000 1.000000 0.000000
vn -0.324789 0.668772 0.668772
vn -0.324789 0.668772 0.668772
vn -0.324789 0.668772 0.668772
vn -0.324789 0.668772 0.668772
s 1
g MESH_EDH_Car_Roadblock
f 36/90/1 37/91/2 18/47/3 8/15/4
s 2
f 15/45/5 21/9/6 14/49/7
s off
f 12/43/8 25/2/9 22/1/10 13/46/11
f 24/5/12 15/45/13 14/49/14 23/6/15
s 1
f 41/100/16 42/102/17 1/50/18 17/48/19
f 38/94/20 39/96/21 9/41/22 19/42/23
s off
f 10/16/24 12/43/25 13/46/26 11/13/27
f 33/40/28 32/38/29 34/37/30 35/39/31
f 22/1/32 25/2/33 26/3/34 27/4/35
f 25/2/36 24/5/37 28/8/38 26/3/39
f 24/5/40 23/6/41 29/7/42 28/8/43
f 23/6/44 22/1/45 27/4/46 29/7/47
f 21/9/48 20/10/49 30/11/50 31/12/51
f 20/10/52 2/51/53 5/52/54 30/11/55
f 6/117/56 7/116/57 21/9/58 31/12/59
f 27/4/60 26/3/61 32/38/62 33/40/63
f 26/3/64 28/8/65 34/37/66 32/38/67
f 28/8/68 29/7/69 35/39/70 34/37/71
f 29/7/72 27/4/73 33/40/74 35/39/75
f 30/11/76 5/52/77 3/53/78
f 4/56/79 6/117/80 31/12/81
s 5
f 11/13/82 36/14/83 8/121/84 10/120/85
s off
f 8/15/86 18/47/87 12/43/88 10/16/89
f 19/42/90 9/41/91 25/2/92 12/43/93
f 9/41/94 16/44/95 15/45/96 24/5/97
f 20/10/98 15/45/99 17/48/100 1/50/101
f 24/5/102 25/2/103 9/41/104
f 2/51/105 20/10/106 1/50/107
s 2
f 15/45/5 20/10/108 21/9/6
s 1
f 38/94/20 19/42/109 18/47/110 37/91/2
f 16/44/111 9/41/112 39/96/21 40/98/113
f 41/100/16 17/48/114 16/44/115 40/98/113
s 9
f 11/13/116 13/46/117 45/68/118 44/17/119
f 14/49/120 21/9/121 43/78/122 46/76/123
f 13/46/117 22/1/124 47/72/125 45/68/118
f 23/6/126 14/49/120 46/76/123 48/74/127
f 22/1/124 23/6/126 48/74/127 47/72/125
f 21/9/121 7/116/128 43/78/122
s 1
f 37/91/2 36/90/1 49/92/129 50/93/130
f 39/96/21 38/94/20 51/95/131 52/97/132
f 40/98/113 39/96/21 52/97/132 53/99/133
f 42/102/17 41/100/16 54/101/134 55/103/135
s 5
f 36/14/83 11/13/82 44/17/136 49/18/137
s 1
f 38/94/20 37/91/2 50/93/130 51/95/131
f 41/100/16 40/98/113 53/99/133 54/101/134
s off
f 44/17/138 45/68/139 50/69/140 49/70/141
f 46/76/142 43/78/143 55/79/144 54/77/145
f 45/68/146 47/72/147 52/73/148 51/71/149
f 48/74/150 46/76/151 54/77/152 53/75/153
f 47/72/154 48/74/155 53/75/156 52/73/157
f 50/69/158 45/68/159 51/71/160
f 12/43/161 18/47/162 19/42/163
f 15/45/164 16/44/165 17/48/166
f 4/56/167 31/12/168 30/11/169 3/53/170
s 11
f 84/114/171 56/119/172 66/62/173 85/112/174
s 12
f 63/55/175 62/59/176 69/27/177
s off
f 60/61/178 61/63/179 70/19/180 73/22/181
f 72/23/182 71/26/183 62/59/184 63/55/185
s 11
f 89/104/186 65/54/187 1/50/188 42/102/189
f 86/110/190 67/60/191 57/58/192 87/108/193
s off
f 58/32/194 59/31/195 61/63/196 60/61/197
f 81/66/198 83/67/199 82/65/200 80/64/201
f 70/19/202 75/20/203 74/21/204 73/22/205
f 73/22/206 74/21/207 76/24/208 72/23/209
f 72/23/210 76/24/211 77/25/212 71/26/213
f 71/26/214 77/25/215 75/20/216 70/19/217
f 69/27/218 79/28/219 78/29/220 68/30/221
f 68/30/222 78/29/223 5/52/224 2/51/225
f 6/117/226 79/28/227 69/27/228 7/116/229
f 75/20/230 81/66/231 80/64/232 74/21/233
f 74/21/234 80/64/235 82/65/236 76/24/237
f 76/24/238 82/65/239 83/67/240 77/25/241
f 77/25/242 83/67/243 81/66/244 75/20/245
f 78/29/246 3/53/247 5/52/248
f 4/56/249 79/28/250 6/117/251
s 15
f 59/31/252 58/118/253 56/33/254 84/34/255
s off
f 56/119/256 58/32/257 60/61/258 66/62/259
f 67/60/260 60/61/261 73/22/262 57/58/263
f 57/58/264 72/23/265 63/55/266 64/57/267
f 68/30/268 1/50/269 65/54/270 63/55/271
f 72/23/272 57/58/273 73/22/274
f 2/51/275 1/50/276 68/30/277
s 12
f 63/55/175 69/27/177 68/30/278
s 11
f 86/110/190 85/112/174 66/62/279 67/60/280
f 64/57/281 88/106/282 87/108/193 57/58/283
f 89/104/186 88/106/282 64/57/284 65/54/285
s 19
f 59/31/286 90/36/287 91/86/288 61/63/289
f 62/59/290 92/80/291 43/78/292 69/27/293
f 61/63/289 91/86/288 93/84/294 70/19/295
f 71/26/296 94/82/297 92/80/291 62/59/290
f 70/19/295 93/84/294 94/82/297 71/26/296
f 69/27/293 43/78/292 7/116/298
s 11
f 85/112/174 96/113/299 95/115/300 84/114/171
f 87/108/193 98/109/301 97/111/302 86/110/190
f 88/106/282 99/107/303 98/109/301 87/108/193
f 42/102/189 55/103/304 100/105/305 89/104/186
s 15
f 84/34/255 95/35/306 90/36/307 59/31/252
s 11
f 86/110/190 97/111/302 96/113/299 85/112/174
f 89/104/186 100/105/305 99/107/303 88/106/282
s off
f 90/36/308 95/89/309 96/88/310 91/86/311
f 92/80/312 100/81/313 55/79/314 43/78/315
f 91/86/316 97/87/317 98/85/318 93/84/319
f 94/82/320 99/83/321 100/81/322 92/80/323
f 93/84/324 98/85/325 99/83/326 94/82/327
f 96/88/328 97/87/329 91/86/330
f 60/61/331 67/60/332 66/62/333
f 63/55/334 65/54/335 64/57/336
f 4/56/337 3/53/338 78/29/339 79/28/340
