# This file uses centimeters as units for non-parametric coordinates.

g default
v 0.640235 0.088580 0.649434
v 0.005933 0.088580 1.292970
v 0.004859 0.085915 1.297227
v 0.001684 0.085915 1.294052
v 1.273766 0.088580 1.292156
v 1.278014 0.085915 1.293235
v 1.274840 0.085915 1.296411
v 0.006800 0.088580 0.006814
v 0.002553 0.085915 0.005732
v 0.005729 0.085915 0.002559
v 1.273660 0.088580 0.006786
v 1.274733 0.085915 0.002530
v 1.277908 0.085915 0.005705
v 0.001684 0.002410 1.294052
v 0.004859 0.002410 1.297227
v 0.005938 -0.000255 1.292973
v 1.274840 0.002410 1.296411
v 1.278014 0.002410 1.293235
v 1.273762 -0.000254 1.292161
v 0.006804 -0.000254 0.006810
v 0.005729 0.002410 0.002559
v 0.002553 0.002410 0.005732
v 1.277908 0.002410 0.005705
v 1.274733 0.002410 0.002530
v 1.273656 -0.000254 0.006782
v 0.640234 -0.000254 0.649435
vt 0.255378 0.931109
vt 0.254985 0.930206
vt 0.255764 0.930205
vt 0.254985 0.903692
vt 0.255764 0.903692
vt 0.500590 0.931118
vt 0.500204 0.930214
vt 0.500984 0.930215
vt 0.500204 0.903684
vt 0.500984 0.903683
vt 0.005635 0.931119
vt 0.005249 0.930215
vt 0.006030 0.930215
vt 0.005249 0.903683
vt 0.006030 0.903683
vt 0.750142 0.931110
vt 0.749748 0.930207
vt 0.750528 0.930207
vt 0.749748 0.903691
vt 0.255379 0.902788
vt 0.500589 0.902779
vt 0.005634 0.902779
vt 0.750143 0.902787
vt 0.127308 0.152403
vt 0.369067 0.397682
vt 0.127638 0.642611
vt 0.610532 0.152713
vt 0.610492 0.642622
vt 0.125688 0.151990
vt 0.126019 0.643023
vt 0.126898 0.150780
vt 0.610942 0.151091
vt 0.127230 0.644233
vt 0.610901 0.644244
vt 0.612151 0.152302
vt 0.612111 0.643034
vt 0.127787 0.152581
vt 0.369214 0.397513
vt 0.127457 0.642792
vt 0.610637 0.152571
vt 0.610678 0.642482
vt 0.125835 0.643203
vt 0.126167 0.152170
vt 0.127377 0.150961
vt 0.611048 0.150950
vt 0.127045 0.644413
vt 0.611089 0.644103
vt 0.612298 0.642892
vt 0.612258 0.152160
vt 0.994751 0.930215
vt 0.750528 0.903691
vt 0.994751 0.903683
vn -0.000000 1.000000 0.000000
vn -0.000000 1.000000 0.000000
vn -0.000000 1.000000 0.000000
vn -0.000000 1.000000 0.000000
vn -0.000000 1.000000 0.000000
vn 0.000000 -1.000000 -0.000000
vn 0.000000 -1.000000 -0.000000
vn 0.000000 -1.000000 -0.000000
vn -0.408189 0.816589 0.408123
vn -0.408189 0.816589 0.408123
vn -0.408189 0.816589 0.408123
vn -0.707164 0.000000 0.707049
vn -0.707164 0.000000 0.707049
vn -0.707164 0.000000 0.707049
vn -0.707164 0.000000 0.707049
vn 0.288832 0.914170 0.284376
vn 0.000879 0.847641 0.530570
vn 0.531298 0.847185 0.000489
vn 0.707327 0.000000 0.706887
vn 0.707327 0.000000 0.706887
vn 0.707327 0.000000 0.706887
vn 0.707327 0.000000 0.706887
vn -0.288823 0.914162 -0.284410
vn -0.000550 0.847622 -0.530600
vn -0.531250 0.847214 -0.000891
vn -0.706876 0.000000 -0.707337
vn -0.706876 0.000000 -0.707337
vn -0.706876 0.000000 -0.707337
vn -0.706876 0.000000 -0.707337
vn 0.288766 0.914201 -0.284343
vn 0.531298 0.847185 -0.000578
vn 0.000527 0.847622 -0.530600
vn 0.707043 0.000000 -0.707170
vn 0.707043 0.000000 -0.707170
vn 0.707043 0.000000 -0.707170
vn 0.707043 0.000000 -0.707170
vn -0.408115 -0.816663 0.408048
vn -0.408115 -0.816663 0.408048
vn -0.408115 -0.816663 0.408048
vn 0.530954 -0.847400 0.000488
vn 0.000880 -0.847431 0.530905
vn 0.288670 -0.914173 0.284530
vn -0.288684 -0.914165 -0.284543
vn -0.530899 -0.847434 -0.000889
vn -0.000552 -0.847405 -0.530947
vn 0.000528 -0.847405 -0.530947
vn 0.530954 -0.847400 -0.000576
vn 0.288622 -0.914202 -0.284487
vn 0.000341 0.847580 0.530667
vn 0.000341 0.847580 0.530667
vn -0.531348 0.847154 -0.000358
vn -0.531348 0.847154 -0.000358
vn 0.000341 -0.847370 0.531003
vn 0.000341 -0.847370 0.531003
vn -0.530996 -0.847374 -0.000358
vn -0.530996 -0.847374 -0.000358
vn -1.000000 0.000000 -0.000674
vn -1.000000 0.000000 -0.000674
vn -1.000000 0.000000 -0.000674
vn -1.000000 0.000000 -0.000674
vn 0.000642 0.000000 1.000000
vn 0.000642 0.000000 1.000000
vn 0.000642 0.000000 1.000000
vn 0.000642 0.000000 1.000000
vn 1.000000 0.000000 -0.000083
vn 1.000000 0.000000 -0.000083
vn 1.000000 0.000000 -0.000083
vn 1.000000 0.000000 -0.000083
vn -0.000023 0.000000 -1.000000
vn -0.000023 0.000000 -1.000000
vn -0.000023 0.000000 -1.000000
vn -0.000023 0.000000 -1.000000
vn 0.000000 -1.000000 -0.000000
vn 0.000000 -1.000000 -0.000000
s 1
g flat:Mesh_EDH_Flat:Mesh_EDH_Flat
f 2/24/1 1/25/2 8/26/3
f 5/27/4 1/25/2 2/24/1
f 11/28/5 8/26/3 1/25/2
f 11/28/5 1/25/2 5/27/4
s 2
f 20/37/6 26/38/7 16/39/8
s off
f 2/1/9 4/2/10 3/3/11
f 3/3/12 4/2/13 14/4/14 15/5/15
s 3
f 5/6/16 7/7/17 6/8/18
s off
f 6/8/19 7/7/20 17/9/21 18/10/22
s 3
f 8/11/23 10/12/24 9/13/25
s off
f 9/13/26 10/12/27 21/14/28 22/15/29
s 3
f 11/16/30 13/17/31 12/18/32
s off
f 12/18/33 13/17/34 23/19/35 24/51/36
f 15/5/37 14/4/38 16/20/39
s 5
f 18/10/40 17/9/41 19/21/42
f 20/22/43 22/15/44 21/14/45
f 24/51/46 23/19/47 25/23/48
s 3
f 2/24/49 3/31/50 7/32/17 5/27/16
f 4/29/51 2/24/52 8/26/23 9/30/25
f 10/33/24 8/26/23 11/28/30 12/34/32
f 5/27/16 6/35/18 13/36/31 11/28/30
s 5
f 15/46/53 16/39/54 19/41/42 17/47/41
f 16/39/55 14/42/56 22/43/44 20/37/43
f 20/37/43 21/44/45 24/45/46 25/40/48
f 18/48/40 19/41/42 25/40/48 23/49/47
s off
f 4/2/57 9/13/58 22/15/59 14/4/60
f 7/7/61 3/3/62 15/5/63 17/9/64
f 13/17/65 6/8/66 18/10/67 23/19/68
f 10/50/69 12/18/70 24/51/71 21/52/72
s 2
f 20/37/6 25/40/73 26/38/7
f 26/38/7 25/40/73 19/41/74
f 16/39/8 26/38/7 19/41/74
